<mxfile host="65bd71144e" pages="3">
    <diagram id="tAm-Q1vrKD3kaD52ELMw" name="structure">
        <mxGraphModel dx="688" dy="1871" grid="1" gridSize="10" guides="1" tooltips="1" connect="1" arrows="1" fold="1" page="1" pageScale="1" pageWidth="850" pageHeight="1100" math="0" shadow="0">
            <root>
                <mxCell id="zu2tDFOteG_yooguGcxT-0"/>
                <mxCell id="zu2tDFOteG_yooguGcxT-1" parent="zu2tDFOteG_yooguGcxT-0"/>
                <mxCell id="zu2tDFOteG_yooguGcxT-224" style="edgeStyle=orthogonalEdgeStyle;rounded=0;orthogonalLoop=1;jettySize=auto;html=1;entryX=1;entryY=0.5;entryDx=0;entryDy=0;" parent="zu2tDFOteG_yooguGcxT-1" edge="1">
                    <mxGeometry relative="1" as="geometry">
                        <mxPoint x="1100" y="-211" as="targetPoint"/>
                    </mxGeometry>
                </mxCell>
                <mxCell id="zu2tDFOteG_yooguGcxT-387" style="edgeStyle=orthogonalEdgeStyle;rounded=0;orthogonalLoop=1;jettySize=auto;html=1;exitX=1;exitY=0.5;exitDx=0;exitDy=0;fillColor=#f5f5f5;strokeColor=#666666;" parent="zu2tDFOteG_yooguGcxT-1" edge="1">
                    <mxGeometry relative="1" as="geometry">
                        <mxPoint x="1008.9999999999995" y="-202" as="targetPoint"/>
                    </mxGeometry>
                </mxCell>
                <mxCell id="zu2tDFOteG_yooguGcxT-388" style="edgeStyle=orthogonalEdgeStyle;rounded=0;orthogonalLoop=1;jettySize=auto;html=1;fillColor=#f5f5f5;strokeColor=#666666;" parent="zu2tDFOteG_yooguGcxT-1" edge="1">
                    <mxGeometry relative="1" as="geometry">
                        <mxPoint x="1008.9999999999995" y="-228" as="targetPoint"/>
                    </mxGeometry>
                </mxCell>
                <mxCell id="zu2tDFOteG_yooguGcxT-389" style="edgeStyle=orthogonalEdgeStyle;rounded=0;orthogonalLoop=1;jettySize=auto;html=1;fillColor=#f5f5f5;strokeColor=#666666;" parent="zu2tDFOteG_yooguGcxT-1" edge="1">
                    <mxGeometry relative="1" as="geometry">
                        <mxPoint x="1008.9999999999995" y="-322" as="targetPoint"/>
                    </mxGeometry>
                </mxCell>
                <mxCell id="186" style="edgeStyle=orthogonalEdgeStyle;rounded=0;orthogonalLoop=1;jettySize=auto;html=1;" parent="zu2tDFOteG_yooguGcxT-1" source="159" edge="1">
                    <mxGeometry relative="1" as="geometry">
                        <mxPoint x="512" y="147" as="targetPoint"/>
                    </mxGeometry>
                </mxCell>
                <mxCell id="409" value="media" style="swimlane;fontStyle=0;childLayout=stackLayout;horizontal=1;startSize=26;fillColor=#f5f5f5;horizontalStack=0;resizeParent=1;resizeParentMax=0;resizeLast=0;collapsible=1;marginBottom=0;swimlaneFillColor=#ffffff;align=center;fontSize=14;fontColor=#333333;strokeColor=#666666;" vertex="1" parent="zu2tDFOteG_yooguGcxT-1">
                    <mxGeometry x="948" y="-352" width="160" height="368" as="geometry"/>
                </mxCell>
                <mxCell id="410" value="id" style="shape=partialRectangle;top=0;left=0;right=0;bottom=1;align=left;verticalAlign=middle;fillColor=#f5f5f5;spacingLeft=34;spacingRight=4;overflow=hidden;rotatable=0;points=[[0,0.5],[1,0.5]];portConstraint=eastwest;dropTarget=0;fontStyle=5;fontSize=12;fontColor=#333333;strokeColor=#666666;" vertex="1" parent="409">
                    <mxGeometry y="26" width="160" height="30" as="geometry"/>
                </mxCell>
                <mxCell id="411" value="PK" style="shape=partialRectangle;top=0;left=0;bottom=0;fillColor=#f5f5f5;align=left;verticalAlign=middle;spacingLeft=4;spacingRight=4;overflow=hidden;rotatable=0;points=[];portConstraint=eastwest;part=1;fontSize=12;fontColor=#333333;strokeColor=#666666;" vertex="1" connectable="0" parent="410">
                    <mxGeometry width="30" height="30" as="geometry"/>
                </mxCell>
                <mxCell id="412" value="model_type" style="shape=partialRectangle;top=0;left=0;right=0;bottom=0;align=left;verticalAlign=top;fillColor=#f5f5f5;spacingLeft=34;spacingRight=4;overflow=hidden;rotatable=0;points=[[0,0.5],[1,0.5]];portConstraint=eastwest;dropTarget=0;fontSize=12;fontColor=#333333;strokeColor=#666666;" vertex="1" parent="409">
                    <mxGeometry y="56" width="160" height="26" as="geometry"/>
                </mxCell>
                <mxCell id="413" value="" style="shape=partialRectangle;top=0;left=0;bottom=0;fillColor=#f5f5f5;align=left;verticalAlign=top;spacingLeft=4;spacingRight=4;overflow=hidden;rotatable=0;points=[];portConstraint=eastwest;part=1;fontSize=12;fontColor=#333333;strokeColor=#666666;" vertex="1" connectable="0" parent="412">
                    <mxGeometry width="30" height="26" as="geometry"/>
                </mxCell>
                <mxCell id="414" value="model_id" style="shape=partialRectangle;top=0;left=0;right=0;bottom=0;align=left;verticalAlign=top;fillColor=#f5f5f5;spacingLeft=34;spacingRight=4;overflow=hidden;rotatable=0;points=[[0,0.5],[1,0.5]];portConstraint=eastwest;dropTarget=0;fontSize=12;fontColor=#333333;strokeColor=#666666;" vertex="1" parent="409">
                    <mxGeometry y="82" width="160" height="26" as="geometry"/>
                </mxCell>
                <mxCell id="415" value="" style="shape=partialRectangle;top=0;left=0;bottom=0;fillColor=#f5f5f5;align=left;verticalAlign=top;spacingLeft=4;spacingRight=4;overflow=hidden;rotatable=0;points=[];portConstraint=eastwest;part=1;fontSize=12;fontColor=#333333;strokeColor=#666666;" vertex="1" connectable="0" parent="414">
                    <mxGeometry width="30" height="26" as="geometry"/>
                </mxCell>
                <mxCell id="416" value="collection_name" style="shape=partialRectangle;top=0;left=0;right=0;bottom=0;align=left;verticalAlign=top;fillColor=#f5f5f5;spacingLeft=34;spacingRight=4;overflow=hidden;rotatable=0;points=[[0,0.5],[1,0.5]];portConstraint=eastwest;dropTarget=0;fontSize=12;fontColor=#333333;strokeColor=#666666;" vertex="1" parent="409">
                    <mxGeometry y="108" width="160" height="26" as="geometry"/>
                </mxCell>
                <mxCell id="417" value="" style="shape=partialRectangle;top=0;left=0;bottom=0;fillColor=#f5f5f5;align=left;verticalAlign=top;spacingLeft=4;spacingRight=4;overflow=hidden;rotatable=0;points=[];portConstraint=eastwest;part=1;fontSize=12;fontColor=#333333;strokeColor=#666666;" vertex="1" connectable="0" parent="416">
                    <mxGeometry width="30" height="26" as="geometry"/>
                </mxCell>
                <mxCell id="418" value="name" style="shape=partialRectangle;top=0;left=0;right=0;bottom=0;align=left;verticalAlign=top;fillColor=#f5f5f5;spacingLeft=34;spacingRight=4;overflow=hidden;rotatable=0;points=[[0,0.5],[1,0.5]];portConstraint=eastwest;dropTarget=0;fontSize=12;fontColor=#333333;strokeColor=#666666;" vertex="1" parent="409">
                    <mxGeometry y="134" width="160" height="26" as="geometry"/>
                </mxCell>
                <mxCell id="419" value="" style="shape=partialRectangle;top=0;left=0;bottom=0;fillColor=#f5f5f5;align=left;verticalAlign=top;spacingLeft=4;spacingRight=4;overflow=hidden;rotatable=0;points=[];portConstraint=eastwest;part=1;fontSize=12;fontColor=#333333;strokeColor=#666666;" vertex="1" connectable="0" parent="418">
                    <mxGeometry width="30" height="26" as="geometry"/>
                </mxCell>
                <mxCell id="420" value="file_name" style="shape=partialRectangle;top=0;left=0;right=0;bottom=0;align=left;verticalAlign=top;fillColor=#f5f5f5;spacingLeft=34;spacingRight=4;overflow=hidden;rotatable=0;points=[[0,0.5],[1,0.5]];portConstraint=eastwest;dropTarget=0;fontSize=12;fontColor=#333333;strokeColor=#666666;" vertex="1" parent="409">
                    <mxGeometry y="160" width="160" height="26" as="geometry"/>
                </mxCell>
                <mxCell id="421" value="" style="shape=partialRectangle;top=0;left=0;bottom=0;fillColor=#f5f5f5;align=left;verticalAlign=top;spacingLeft=4;spacingRight=4;overflow=hidden;rotatable=0;points=[];portConstraint=eastwest;part=1;fontSize=12;fontColor=#333333;strokeColor=#666666;" vertex="1" connectable="0" parent="420">
                    <mxGeometry width="30" height="26" as="geometry"/>
                </mxCell>
                <mxCell id="422" value="mime_type" style="shape=partialRectangle;top=0;left=0;right=0;bottom=0;align=left;verticalAlign=top;fillColor=#f5f5f5;spacingLeft=34;spacingRight=4;overflow=hidden;rotatable=0;points=[[0,0.5],[1,0.5]];portConstraint=eastwest;dropTarget=0;fontSize=12;fontColor=#333333;strokeColor=#666666;" vertex="1" parent="409">
                    <mxGeometry y="186" width="160" height="26" as="geometry"/>
                </mxCell>
                <mxCell id="423" value="" style="shape=partialRectangle;top=0;left=0;bottom=0;fillColor=#f5f5f5;align=left;verticalAlign=top;spacingLeft=4;spacingRight=4;overflow=hidden;rotatable=0;points=[];portConstraint=eastwest;part=1;fontSize=12;fontColor=#333333;strokeColor=#666666;" vertex="1" connectable="0" parent="422">
                    <mxGeometry width="30" height="26" as="geometry"/>
                </mxCell>
                <mxCell id="424" value="size" style="shape=partialRectangle;top=0;left=0;right=0;bottom=0;align=left;verticalAlign=top;fillColor=#f5f5f5;spacingLeft=34;spacingRight=4;overflow=hidden;rotatable=0;points=[[0,0.5],[1,0.5]];portConstraint=eastwest;dropTarget=0;fontSize=12;fontColor=#333333;strokeColor=#666666;" vertex="1" parent="409">
                    <mxGeometry y="212" width="160" height="26" as="geometry"/>
                </mxCell>
                <mxCell id="425" value="" style="shape=partialRectangle;top=0;left=0;bottom=0;fillColor=#f5f5f5;align=left;verticalAlign=top;spacingLeft=4;spacingRight=4;overflow=hidden;rotatable=0;points=[];portConstraint=eastwest;part=1;fontSize=12;fontColor=#333333;strokeColor=#666666;" vertex="1" connectable="0" parent="424">
                    <mxGeometry width="30" height="26" as="geometry"/>
                </mxCell>
                <mxCell id="426" value="disk" style="shape=partialRectangle;top=0;left=0;right=0;bottom=0;align=left;verticalAlign=top;fillColor=#f5f5f5;spacingLeft=34;spacingRight=4;overflow=hidden;rotatable=0;points=[[0,0.5],[1,0.5]];portConstraint=eastwest;dropTarget=0;fontSize=12;fontColor=#333333;strokeColor=#666666;" vertex="1" parent="409">
                    <mxGeometry y="238" width="160" height="26" as="geometry"/>
                </mxCell>
                <mxCell id="427" value="" style="shape=partialRectangle;top=0;left=0;bottom=0;fillColor=#f5f5f5;align=left;verticalAlign=top;spacingLeft=4;spacingRight=4;overflow=hidden;rotatable=0;points=[];portConstraint=eastwest;part=1;fontSize=12;fontColor=#333333;strokeColor=#666666;" vertex="1" connectable="0" parent="426">
                    <mxGeometry width="30" height="26" as="geometry"/>
                </mxCell>
                <mxCell id="428" value="manipulations" style="shape=partialRectangle;top=0;left=0;right=0;bottom=0;align=left;verticalAlign=top;fillColor=#f5f5f5;spacingLeft=34;spacingRight=4;overflow=hidden;rotatable=0;points=[[0,0.5],[1,0.5]];portConstraint=eastwest;dropTarget=0;fontSize=12;fontColor=#333333;strokeColor=#666666;" vertex="1" parent="409">
                    <mxGeometry y="264" width="160" height="26" as="geometry"/>
                </mxCell>
                <mxCell id="429" value="" style="shape=partialRectangle;top=0;left=0;bottom=0;fillColor=#f5f5f5;align=left;verticalAlign=top;spacingLeft=4;spacingRight=4;overflow=hidden;rotatable=0;points=[];portConstraint=eastwest;part=1;fontSize=12;fontColor=#333333;strokeColor=#666666;" vertex="1" connectable="0" parent="428">
                    <mxGeometry width="30" height="26" as="geometry"/>
                </mxCell>
                <mxCell id="430" value="custom_properties" style="shape=partialRectangle;top=0;left=0;right=0;bottom=0;align=left;verticalAlign=top;fillColor=#f5f5f5;spacingLeft=34;spacingRight=4;overflow=hidden;rotatable=0;points=[[0,0.5],[1,0.5]];portConstraint=eastwest;dropTarget=0;fontSize=12;fontColor=#333333;strokeColor=#666666;" vertex="1" parent="409">
                    <mxGeometry y="290" width="160" height="26" as="geometry"/>
                </mxCell>
                <mxCell id="431" value="" style="shape=partialRectangle;top=0;left=0;bottom=0;fillColor=#f5f5f5;align=left;verticalAlign=top;spacingLeft=4;spacingRight=4;overflow=hidden;rotatable=0;points=[];portConstraint=eastwest;part=1;fontSize=12;fontColor=#333333;strokeColor=#666666;" vertex="1" connectable="0" parent="430">
                    <mxGeometry width="30" height="26" as="geometry"/>
                </mxCell>
                <mxCell id="432" value="responsive_images" style="shape=partialRectangle;top=0;left=0;right=0;bottom=0;align=left;verticalAlign=top;fillColor=#f5f5f5;spacingLeft=34;spacingRight=4;overflow=hidden;rotatable=0;points=[[0,0.5],[1,0.5]];portConstraint=eastwest;dropTarget=0;fontSize=12;fontColor=#333333;strokeColor=#666666;" vertex="1" parent="409">
                    <mxGeometry y="316" width="160" height="26" as="geometry"/>
                </mxCell>
                <mxCell id="433" value="" style="shape=partialRectangle;top=0;left=0;bottom=0;fillColor=#f5f5f5;align=left;verticalAlign=top;spacingLeft=4;spacingRight=4;overflow=hidden;rotatable=0;points=[];portConstraint=eastwest;part=1;fontSize=12;fontColor=#333333;strokeColor=#666666;" vertex="1" connectable="0" parent="432">
                    <mxGeometry width="30" height="26" as="geometry"/>
                </mxCell>
                <mxCell id="434" value="order_column" style="shape=partialRectangle;top=0;left=0;right=0;bottom=0;align=left;verticalAlign=top;fillColor=#f5f5f5;spacingLeft=34;spacingRight=4;overflow=hidden;rotatable=0;points=[[0,0.5],[1,0.5]];portConstraint=eastwest;dropTarget=0;fontSize=12;fontColor=#333333;strokeColor=#666666;" vertex="1" parent="409">
                    <mxGeometry y="342" width="160" height="26" as="geometry"/>
                </mxCell>
                <mxCell id="435" value="" style="shape=partialRectangle;top=0;left=0;bottom=0;fillColor=#f5f5f5;align=left;verticalAlign=top;spacingLeft=4;spacingRight=4;overflow=hidden;rotatable=0;points=[];portConstraint=eastwest;part=1;fontSize=12;fontColor=#333333;strokeColor=#666666;" vertex="1" connectable="0" parent="434">
                    <mxGeometry width="30" height="26" as="geometry"/>
                </mxCell>
                <mxCell id="436" value="categories" style="swimlane;fontStyle=0;childLayout=stackLayout;horizontal=1;startSize=26;fillColor=#f5f5f5;horizontalStack=0;resizeParent=1;resizeParentMax=0;resizeLast=0;collapsible=1;marginBottom=0;swimlaneFillColor=#ffffff;align=center;fontSize=14;strokeColor=#666666;fontColor=#333333;" vertex="1" parent="zu2tDFOteG_yooguGcxT-1">
                    <mxGeometry x="1640" y="-590.5" width="160" height="264" as="geometry">
                        <mxRectangle x="500" y="340" width="60" height="26" as="alternateBounds"/>
                    </mxGeometry>
                </mxCell>
                <mxCell id="437" style="edgeStyle=orthogonalEdgeStyle;rounded=0;orthogonalLoop=1;jettySize=auto;html=1;exitX=0;exitY=0.5;exitDx=0;exitDy=0;entryX=0;entryY=0.5;entryDx=0;entryDy=0;" edge="1" parent="436" source="439" target="443">
                    <mxGeometry relative="1" as="geometry"/>
                </mxCell>
                <mxCell id="438" style="edgeStyle=orthogonalEdgeStyle;rounded=0;orthogonalLoop=1;jettySize=auto;html=1;exitX=0;exitY=0.5;exitDx=0;exitDy=0;entryX=0;entryY=0.5;entryDx=0;entryDy=0;" edge="1" parent="436" source="439" target="445">
                    <mxGeometry relative="1" as="geometry"/>
                </mxCell>
                <mxCell id="439" value="id" style="shape=partialRectangle;top=0;left=0;right=0;bottom=1;align=left;verticalAlign=middle;fillColor=#f5f5f5;spacingLeft=34;spacingRight=4;overflow=hidden;rotatable=0;points=[[0,0.5],[1,0.5]];portConstraint=eastwest;dropTarget=0;fontStyle=5;fontSize=12;fontColor=#333333;strokeColor=#666666;" vertex="1" parent="436">
                    <mxGeometry y="26" width="160" height="30" as="geometry"/>
                </mxCell>
                <mxCell id="440" value="PK" style="shape=partialRectangle;top=0;left=0;bottom=0;fillColor=#f5f5f5;align=left;verticalAlign=middle;spacingLeft=4;spacingRight=4;overflow=hidden;rotatable=0;points=[];portConstraint=eastwest;part=1;fontSize=12;fontColor=#333333;strokeColor=#666666;" vertex="1" connectable="0" parent="439">
                    <mxGeometry width="30" height="30" as="geometry"/>
                </mxCell>
                <mxCell id="441" value="name" style="shape=partialRectangle;top=0;left=0;right=0;bottom=0;align=left;verticalAlign=top;fillColor=#f5f5f5;spacingLeft=34;spacingRight=4;overflow=hidden;rotatable=0;points=[[0,0.5],[1,0.5]];portConstraint=eastwest;dropTarget=0;fontSize=12;fontColor=#333333;strokeColor=#666666;" vertex="1" parent="436">
                    <mxGeometry y="56" width="160" height="26" as="geometry"/>
                </mxCell>
                <mxCell id="442" value="" style="shape=partialRectangle;top=0;left=0;bottom=0;fillColor=#f5f5f5;align=left;verticalAlign=top;spacingLeft=4;spacingRight=4;overflow=hidden;rotatable=0;points=[];portConstraint=eastwest;part=1;fontSize=12;fontColor=#333333;strokeColor=#666666;" vertex="1" connectable="0" parent="441">
                    <mxGeometry width="30" height="26" as="geometry"/>
                </mxCell>
                <mxCell id="443" value="parent_id" style="shape=partialRectangle;top=0;left=0;right=0;bottom=0;align=left;verticalAlign=top;fillColor=#f5f5f5;spacingLeft=34;spacingRight=4;overflow=hidden;rotatable=0;points=[[0,0.5],[1,0.5]];portConstraint=eastwest;dropTarget=0;fontSize=12;fontColor=#333333;strokeColor=#666666;" vertex="1" parent="436">
                    <mxGeometry y="82" width="160" height="26" as="geometry"/>
                </mxCell>
                <mxCell id="444" value="" style="shape=partialRectangle;top=0;left=0;bottom=0;fillColor=#f5f5f5;align=left;verticalAlign=top;spacingLeft=4;spacingRight=4;overflow=hidden;rotatable=0;points=[];portConstraint=eastwest;part=1;fontSize=12;fontColor=#333333;strokeColor=#666666;" vertex="1" connectable="0" parent="443">
                    <mxGeometry width="30" height="26" as="geometry"/>
                </mxCell>
                <mxCell id="445" value="child_id" style="shape=partialRectangle;top=0;left=0;right=0;bottom=0;align=left;verticalAlign=top;fillColor=#f5f5f5;spacingLeft=34;spacingRight=4;overflow=hidden;rotatable=0;points=[[0,0.5],[1,0.5]];portConstraint=eastwest;dropTarget=0;fontSize=12;fontColor=#333333;strokeColor=#666666;" vertex="1" parent="436">
                    <mxGeometry y="108" width="160" height="26" as="geometry"/>
                </mxCell>
                <mxCell id="446" value="" style="shape=partialRectangle;top=0;left=0;bottom=0;fillColor=#f5f5f5;align=left;verticalAlign=top;spacingLeft=4;spacingRight=4;overflow=hidden;rotatable=0;points=[];portConstraint=eastwest;part=1;fontSize=12;fontColor=#333333;strokeColor=#666666;" vertex="1" connectable="0" parent="445">
                    <mxGeometry width="30" height="26" as="geometry"/>
                </mxCell>
                <mxCell id="447" value="data" style="shape=partialRectangle;top=0;left=0;right=0;bottom=0;align=left;verticalAlign=top;fillColor=#f5f5f5;spacingLeft=34;spacingRight=4;overflow=hidden;rotatable=0;points=[[0,0.5],[1,0.5]];portConstraint=eastwest;dropTarget=0;fontSize=12;fontColor=#333333;strokeColor=#666666;" vertex="1" parent="436">
                    <mxGeometry y="134" width="160" height="26" as="geometry"/>
                </mxCell>
                <mxCell id="448" value="obj" style="shape=partialRectangle;top=0;left=0;bottom=0;fillColor=#f5f5f5;align=left;verticalAlign=top;spacingLeft=4;spacingRight=4;overflow=hidden;rotatable=0;points=[];portConstraint=eastwest;part=1;fontSize=12;fontColor=#333333;strokeColor=#666666;" vertex="1" connectable="0" parent="447">
                    <mxGeometry width="30" height="26" as="geometry"/>
                </mxCell>
                <mxCell id="449" value="order" style="shape=partialRectangle;top=0;left=0;right=0;bottom=0;align=left;verticalAlign=top;fillColor=#f5f5f5;spacingLeft=34;spacingRight=4;overflow=hidden;rotatable=0;points=[[0,0.5],[1,0.5]];portConstraint=eastwest;dropTarget=0;fontSize=12;fontColor=#333333;strokeColor=#666666;" vertex="1" parent="436">
                    <mxGeometry y="160" width="160" height="26" as="geometry"/>
                </mxCell>
                <mxCell id="450" value="" style="shape=partialRectangle;top=0;left=0;bottom=0;fillColor=#f5f5f5;align=left;verticalAlign=top;spacingLeft=4;spacingRight=4;overflow=hidden;rotatable=0;points=[];portConstraint=eastwest;part=1;fontSize=12;fontColor=#333333;strokeColor=#666666;" vertex="1" connectable="0" parent="449">
                    <mxGeometry width="30" height="26" as="geometry"/>
                </mxCell>
                <mxCell id="451" value="status" style="shape=partialRectangle;top=0;left=0;right=0;bottom=0;align=left;verticalAlign=top;fillColor=#f5f5f5;spacingLeft=34;spacingRight=4;overflow=hidden;rotatable=0;points=[[0,0.5],[1,0.5]];portConstraint=eastwest;dropTarget=0;fontSize=12;fontColor=#333333;strokeColor=#666666;" vertex="1" parent="436">
                    <mxGeometry y="186" width="160" height="26" as="geometry"/>
                </mxCell>
                <mxCell id="452" value="enum" style="shape=partialRectangle;top=0;left=0;bottom=0;fillColor=#f5f5f5;align=left;verticalAlign=top;spacingLeft=4;spacingRight=4;overflow=hidden;rotatable=0;points=[];portConstraint=eastwest;part=1;fontSize=12;fontColor=#333333;strokeColor=#666666;" vertex="1" connectable="0" parent="451">
                    <mxGeometry width="30" height="26" as="geometry"/>
                </mxCell>
                <mxCell id="453" value="created_at" style="shape=partialRectangle;top=0;left=0;right=0;bottom=0;align=left;verticalAlign=top;fillColor=#f5f5f5;spacingLeft=34;spacingRight=4;overflow=hidden;rotatable=0;points=[[0,0.5],[1,0.5]];portConstraint=eastwest;dropTarget=0;fontSize=12;fontColor=#333333;strokeColor=#666666;" vertex="1" parent="436">
                    <mxGeometry y="212" width="160" height="26" as="geometry"/>
                </mxCell>
                <mxCell id="454" value="" style="shape=partialRectangle;top=0;left=0;bottom=0;fillColor=#f5f5f5;align=left;verticalAlign=top;spacingLeft=4;spacingRight=4;overflow=hidden;rotatable=0;points=[];portConstraint=eastwest;part=1;fontSize=12;fontColor=#333333;strokeColor=#666666;" vertex="1" connectable="0" parent="453">
                    <mxGeometry width="30" height="26" as="geometry"/>
                </mxCell>
                <mxCell id="455" value="updated_at" style="shape=partialRectangle;top=0;left=0;right=0;bottom=0;align=left;verticalAlign=top;fillColor=#f5f5f5;spacingLeft=34;spacingRight=4;overflow=hidden;rotatable=0;points=[[0,0.5],[1,0.5]];portConstraint=eastwest;dropTarget=0;fontSize=12;fontColor=#333333;strokeColor=#666666;" vertex="1" parent="436">
                    <mxGeometry y="238" width="160" height="26" as="geometry"/>
                </mxCell>
                <mxCell id="456" value="" style="shape=partialRectangle;top=0;left=0;bottom=0;fillColor=#f5f5f5;align=left;verticalAlign=top;spacingLeft=4;spacingRight=4;overflow=hidden;rotatable=0;points=[];portConstraint=eastwest;part=1;fontSize=12;fontColor=#333333;strokeColor=#666666;" vertex="1" connectable="0" parent="455">
                    <mxGeometry width="30" height="26" as="geometry"/>
                </mxCell>
                <mxCell id="457" value="blogs" style="swimlane;fontStyle=0;childLayout=stackLayout;horizontal=1;startSize=26;fillColor=#f5f5f5;horizontalStack=0;resizeParent=1;resizeParentMax=0;resizeLast=0;collapsible=1;marginBottom=0;swimlaneFillColor=#ffffff;align=center;fontSize=14;strokeColor=#666666;fontColor=#333333;" vertex="1" parent="zu2tDFOteG_yooguGcxT-1">
                    <mxGeometry x="1640" y="-290" width="180" height="342" as="geometry">
                        <mxRectangle x="500" y="340" width="60" height="26" as="alternateBounds"/>
                    </mxGeometry>
                </mxCell>
                <mxCell id="458" value="id" style="shape=partialRectangle;top=0;left=0;right=0;bottom=1;align=left;verticalAlign=middle;fillColor=#f5f5f5;spacingLeft=34;spacingRight=4;overflow=hidden;rotatable=0;points=[[0,0.5],[1,0.5]];portConstraint=eastwest;dropTarget=0;fontStyle=5;fontSize=12;fontColor=#333333;strokeColor=#666666;" vertex="1" parent="457">
                    <mxGeometry y="26" width="180" height="30" as="geometry"/>
                </mxCell>
                <mxCell id="459" value="PK" style="shape=partialRectangle;top=0;left=0;bottom=0;fillColor=#f5f5f5;align=left;verticalAlign=middle;spacingLeft=4;spacingRight=4;overflow=hidden;rotatable=0;points=[];portConstraint=eastwest;part=1;fontSize=12;fontColor=#333333;strokeColor=#666666;" vertex="1" connectable="0" parent="458">
                    <mxGeometry width="30" height="30" as="geometry"/>
                </mxCell>
                <mxCell id="460" value="name_en" style="shape=partialRectangle;top=0;left=0;right=0;bottom=0;align=left;verticalAlign=top;fillColor=#f5f5f5;spacingLeft=34;spacingRight=4;overflow=hidden;rotatable=0;points=[[0,0.5],[1,0.5]];portConstraint=eastwest;dropTarget=0;fontSize=12;fontColor=#333333;strokeColor=#666666;" vertex="1" parent="457">
                    <mxGeometry y="56" width="180" height="26" as="geometry"/>
                </mxCell>
                <mxCell id="461" value="" style="shape=partialRectangle;top=0;left=0;bottom=0;fillColor=#f5f5f5;align=left;verticalAlign=top;spacingLeft=4;spacingRight=4;overflow=hidden;rotatable=0;points=[];portConstraint=eastwest;part=1;fontSize=12;fontColor=#333333;strokeColor=#666666;" vertex="1" connectable="0" parent="460">
                    <mxGeometry width="30" height="26" as="geometry"/>
                </mxCell>
                <mxCell id="462" value="name_ar" style="shape=partialRectangle;top=0;left=0;right=0;bottom=0;align=left;verticalAlign=top;fillColor=#f5f5f5;spacingLeft=34;spacingRight=4;overflow=hidden;rotatable=0;points=[[0,0.5],[1,0.5]];portConstraint=eastwest;dropTarget=0;fontSize=12;fontColor=#333333;strokeColor=#666666;" vertex="1" parent="457">
                    <mxGeometry y="82" width="180" height="26" as="geometry"/>
                </mxCell>
                <mxCell id="463" value="" style="shape=partialRectangle;top=0;left=0;bottom=0;fillColor=#f5f5f5;align=left;verticalAlign=top;spacingLeft=4;spacingRight=4;overflow=hidden;rotatable=0;points=[];portConstraint=eastwest;part=1;fontSize=12;fontColor=#333333;strokeColor=#666666;" vertex="1" connectable="0" parent="462">
                    <mxGeometry width="30" height="26" as="geometry"/>
                </mxCell>
                <mxCell id="464" value="category_id" style="shape=partialRectangle;top=0;left=0;right=0;bottom=0;align=left;verticalAlign=top;fillColor=#f5f5f5;spacingLeft=34;spacingRight=4;overflow=hidden;rotatable=0;points=[[0,0.5],[1,0.5]];portConstraint=eastwest;dropTarget=0;fontSize=12;fontColor=#333333;strokeColor=#666666;" vertex="1" parent="457">
                    <mxGeometry y="108" width="180" height="26" as="geometry"/>
                </mxCell>
                <mxCell id="465" value="" style="shape=partialRectangle;top=0;left=0;bottom=0;fillColor=#f5f5f5;align=left;verticalAlign=top;spacingLeft=4;spacingRight=4;overflow=hidden;rotatable=0;points=[];portConstraint=eastwest;part=1;fontSize=12;fontColor=#333333;strokeColor=#666666;" vertex="1" connectable="0" parent="464">
                    <mxGeometry width="30" height="26" as="geometry"/>
                </mxCell>
                <mxCell id="466" value="author_id" style="shape=partialRectangle;top=0;left=0;right=0;bottom=0;align=left;verticalAlign=top;fillColor=#f5f5f5;spacingLeft=34;spacingRight=4;overflow=hidden;rotatable=0;points=[[0,0.5],[1,0.5]];portConstraint=eastwest;dropTarget=0;fontSize=12;fontColor=#333333;strokeColor=#666666;" vertex="1" parent="457">
                    <mxGeometry y="134" width="180" height="26" as="geometry"/>
                </mxCell>
                <mxCell id="467" value="" style="shape=partialRectangle;top=0;left=0;bottom=0;fillColor=#f5f5f5;align=left;verticalAlign=top;spacingLeft=4;spacingRight=4;overflow=hidden;rotatable=0;points=[];portConstraint=eastwest;part=1;fontSize=12;fontColor=#333333;strokeColor=#666666;" vertex="1" connectable="0" parent="466">
                    <mxGeometry width="30" height="26" as="geometry"/>
                </mxCell>
                <mxCell id="468" value="editor_id" style="shape=partialRectangle;top=0;left=0;right=0;bottom=0;align=left;verticalAlign=top;fillColor=#f5f5f5;spacingLeft=34;spacingRight=4;overflow=hidden;rotatable=0;points=[[0,0.5],[1,0.5]];portConstraint=eastwest;dropTarget=0;fontSize=12;fontColor=#333333;strokeColor=#666666;" vertex="1" parent="457">
                    <mxGeometry y="160" width="180" height="26" as="geometry"/>
                </mxCell>
                <mxCell id="469" value="" style="shape=partialRectangle;top=0;left=0;bottom=0;fillColor=#f5f5f5;align=left;verticalAlign=top;spacingLeft=4;spacingRight=4;overflow=hidden;rotatable=0;points=[];portConstraint=eastwest;part=1;fontSize=12;fontColor=#333333;strokeColor=#666666;" vertex="1" connectable="0" parent="468">
                    <mxGeometry width="30" height="26" as="geometry"/>
                </mxCell>
                <mxCell id="03yuZUI37aBGbd1FjUiY-670" value="seo [ title, des , keyword ]" style="shape=partialRectangle;top=0;left=0;right=0;bottom=0;align=left;verticalAlign=top;fillColor=#f5f5f5;spacingLeft=34;spacingRight=4;overflow=hidden;rotatable=0;points=[[0,0.5],[1,0.5]];portConstraint=eastwest;dropTarget=0;fontSize=12;fontColor=#333333;strokeColor=#666666;" vertex="1" parent="457">
                    <mxGeometry y="186" width="180" height="26" as="geometry"/>
                </mxCell>
                <mxCell id="03yuZUI37aBGbd1FjUiY-671" value="object" style="shape=partialRectangle;top=0;left=0;bottom=0;fillColor=#f5f5f5;align=left;verticalAlign=top;spacingLeft=4;spacingRight=4;overflow=hidden;rotatable=0;points=[];portConstraint=eastwest;part=1;fontSize=12;fontColor=#333333;strokeColor=#666666;" vertex="1" connectable="0" parent="03yuZUI37aBGbd1FjUiY-670">
                    <mxGeometry width="30" height="26" as="geometry"/>
                </mxCell>
                <mxCell id="470" value="data" style="shape=partialRectangle;top=0;left=0;right=0;bottom=0;align=left;verticalAlign=top;fillColor=#f5f5f5;spacingLeft=34;spacingRight=4;overflow=hidden;rotatable=0;points=[[0,0.5],[1,0.5]];portConstraint=eastwest;dropTarget=0;fontSize=12;fontColor=#333333;strokeColor=#666666;" vertex="1" parent="457">
                    <mxGeometry y="212" width="180" height="26" as="geometry"/>
                </mxCell>
                <mxCell id="471" value="array" style="shape=partialRectangle;top=0;left=0;bottom=0;fillColor=#f5f5f5;align=left;verticalAlign=top;spacingLeft=4;spacingRight=4;overflow=hidden;rotatable=0;points=[];portConstraint=eastwest;part=1;fontSize=12;fontColor=#333333;strokeColor=#666666;" vertex="1" connectable="0" parent="470">
                    <mxGeometry width="30" height="26" as="geometry"/>
                </mxCell>
                <mxCell id="03yuZUI37aBGbd1FjUiY-672" value="is_commented" style="shape=partialRectangle;top=0;left=0;right=0;bottom=0;align=left;verticalAlign=top;fillColor=#f5f5f5;spacingLeft=34;spacingRight=4;overflow=hidden;rotatable=0;points=[[0,0.5],[1,0.5]];portConstraint=eastwest;dropTarget=0;fontSize=12;fontColor=#333333;strokeColor=#666666;" vertex="1" parent="457">
                    <mxGeometry y="238" width="180" height="26" as="geometry"/>
                </mxCell>
                <mxCell id="03yuZUI37aBGbd1FjUiY-673" value="0|1" style="shape=partialRectangle;top=0;left=0;bottom=0;fillColor=#f5f5f5;align=left;verticalAlign=top;spacingLeft=4;spacingRight=4;overflow=hidden;rotatable=0;points=[];portConstraint=eastwest;part=1;fontSize=12;fontColor=#333333;strokeColor=#666666;" vertex="1" connectable="0" parent="03yuZUI37aBGbd1FjUiY-672">
                    <mxGeometry width="30" height="26" as="geometry"/>
                </mxCell>
                <mxCell id="474" value="status" style="shape=partialRectangle;top=0;left=0;right=0;bottom=0;align=left;verticalAlign=top;fillColor=#f5f5f5;spacingLeft=34;spacingRight=4;overflow=hidden;rotatable=0;points=[[0,0.5],[1,0.5]];portConstraint=eastwest;dropTarget=0;fontSize=12;fontColor=#333333;strokeColor=#666666;" vertex="1" parent="457">
                    <mxGeometry y="264" width="180" height="26" as="geometry"/>
                </mxCell>
                <mxCell id="475" value="enum" style="shape=partialRectangle;top=0;left=0;bottom=0;fillColor=#f5f5f5;align=left;verticalAlign=top;spacingLeft=4;spacingRight=4;overflow=hidden;rotatable=0;points=[];portConstraint=eastwest;part=1;fontSize=12;fontColor=#333333;strokeColor=#666666;" vertex="1" connectable="0" parent="474">
                    <mxGeometry width="30" height="26" as="geometry"/>
                </mxCell>
                <mxCell id="476" value="created_at" style="shape=partialRectangle;top=0;left=0;right=0;bottom=0;align=left;verticalAlign=top;fillColor=#f5f5f5;spacingLeft=34;spacingRight=4;overflow=hidden;rotatable=0;points=[[0,0.5],[1,0.5]];portConstraint=eastwest;dropTarget=0;fontSize=12;fontColor=#333333;strokeColor=#666666;" vertex="1" parent="457">
                    <mxGeometry y="290" width="180" height="26" as="geometry"/>
                </mxCell>
                <mxCell id="477" value="" style="shape=partialRectangle;top=0;left=0;bottom=0;fillColor=#f5f5f5;align=left;verticalAlign=top;spacingLeft=4;spacingRight=4;overflow=hidden;rotatable=0;points=[];portConstraint=eastwest;part=1;fontSize=12;fontColor=#333333;strokeColor=#666666;" vertex="1" connectable="0" parent="476">
                    <mxGeometry width="30" height="26" as="geometry"/>
                </mxCell>
                <mxCell id="478" value="updated_at" style="shape=partialRectangle;top=0;left=0;right=0;bottom=0;align=left;verticalAlign=top;fillColor=#f5f5f5;spacingLeft=34;spacingRight=4;overflow=hidden;rotatable=0;points=[[0,0.5],[1,0.5]];portConstraint=eastwest;dropTarget=0;fontSize=12;fontColor=#333333;strokeColor=#666666;" vertex="1" parent="457">
                    <mxGeometry y="316" width="180" height="26" as="geometry"/>
                </mxCell>
                <mxCell id="479" value="" style="shape=partialRectangle;top=0;left=0;bottom=0;fillColor=#f5f5f5;align=left;verticalAlign=top;spacingLeft=4;spacingRight=4;overflow=hidden;rotatable=0;points=[];portConstraint=eastwest;part=1;fontSize=12;fontColor=#333333;strokeColor=#666666;" vertex="1" connectable="0" parent="478">
                    <mxGeometry width="30" height="26" as="geometry"/>
                </mxCell>
                <mxCell id="480" value="users" style="swimlane;fontStyle=0;childLayout=stackLayout;horizontal=1;startSize=26;fillColor=#f5f5f5;horizontalStack=0;resizeParent=1;resizeParentMax=0;resizeLast=0;collapsible=1;marginBottom=0;swimlaneFillColor=#ffffff;align=center;fontSize=14;strokeColor=#666666;fontColor=#333333;" vertex="1" parent="zu2tDFOteG_yooguGcxT-1">
                    <mxGeometry x="1360" y="-300" width="200" height="238" as="geometry"/>
                </mxCell>
                <mxCell id="481" value="id" style="shape=partialRectangle;top=0;left=0;right=0;bottom=1;align=left;verticalAlign=middle;fillColor=#f5f5f5;spacingLeft=34;spacingRight=4;overflow=hidden;rotatable=0;points=[[0,0.5],[1,0.5]];portConstraint=eastwest;dropTarget=0;fontStyle=5;fontSize=12;fontColor=#333333;strokeColor=#666666;" vertex="1" parent="480">
                    <mxGeometry y="26" width="200" height="30" as="geometry"/>
                </mxCell>
                <mxCell id="482" value="PK" style="shape=partialRectangle;top=0;left=0;bottom=0;fillColor=#f5f5f5;align=left;verticalAlign=middle;spacingLeft=4;spacingRight=4;overflow=hidden;rotatable=0;points=[];portConstraint=eastwest;part=1;fontSize=12;fontColor=#333333;strokeColor=#666666;" vertex="1" connectable="0" parent="481">
                    <mxGeometry width="30" height="30" as="geometry"/>
                </mxCell>
                <mxCell id="483" value="name" style="shape=partialRectangle;top=0;left=0;right=0;bottom=0;align=left;verticalAlign=top;fillColor=#f5f5f5;spacingLeft=34;spacingRight=4;overflow=hidden;rotatable=0;points=[[0,0.5],[1,0.5]];portConstraint=eastwest;dropTarget=0;fontSize=12;fontColor=#333333;strokeColor=#666666;" vertex="1" parent="480">
                    <mxGeometry y="56" width="200" height="26" as="geometry"/>
                </mxCell>
                <mxCell id="484" value="" style="shape=partialRectangle;top=0;left=0;bottom=0;fillColor=#f5f5f5;align=left;verticalAlign=top;spacingLeft=4;spacingRight=4;overflow=hidden;rotatable=0;points=[];portConstraint=eastwest;part=1;fontSize=12;fontColor=#333333;strokeColor=#666666;" vertex="1" connectable="0" parent="483">
                    <mxGeometry width="30" height="26" as="geometry"/>
                </mxCell>
                <mxCell id="485" value="email" style="shape=partialRectangle;top=0;left=0;right=0;bottom=0;align=left;verticalAlign=top;fillColor=#f5f5f5;spacingLeft=34;spacingRight=4;overflow=hidden;rotatable=0;points=[[0,0.5],[1,0.5]];portConstraint=eastwest;dropTarget=0;fontSize=12;fontColor=#333333;strokeColor=#666666;" vertex="1" parent="480">
                    <mxGeometry y="82" width="200" height="26" as="geometry"/>
                </mxCell>
                <mxCell id="486" value="" style="shape=partialRectangle;top=0;left=0;bottom=0;fillColor=#f5f5f5;align=left;verticalAlign=top;spacingLeft=4;spacingRight=4;overflow=hidden;rotatable=0;points=[];portConstraint=eastwest;part=1;fontSize=12;fontColor=#333333;strokeColor=#666666;" vertex="1" connectable="0" parent="485">
                    <mxGeometry width="30" height="26" as="geometry"/>
                </mxCell>
                <mxCell id="487" value="password" style="shape=partialRectangle;top=0;left=0;right=0;bottom=0;align=left;verticalAlign=top;fillColor=#f5f5f5;spacingLeft=34;spacingRight=4;overflow=hidden;rotatable=0;points=[[0,0.5],[1,0.5]];portConstraint=eastwest;dropTarget=0;fontSize=12;fontColor=#333333;strokeColor=#666666;" vertex="1" parent="480">
                    <mxGeometry y="108" width="200" height="26" as="geometry"/>
                </mxCell>
                <mxCell id="488" value="" style="shape=partialRectangle;top=0;left=0;bottom=0;fillColor=#f5f5f5;align=left;verticalAlign=top;spacingLeft=4;spacingRight=4;overflow=hidden;rotatable=0;points=[];portConstraint=eastwest;part=1;fontSize=12;fontColor=#333333;strokeColor=#666666;" vertex="1" connectable="0" parent="487">
                    <mxGeometry width="30" height="26" as="geometry"/>
                </mxCell>
                <mxCell id="03yuZUI37aBGbd1FjUiY-676" value="game_details [ username ]" style="shape=partialRectangle;top=0;left=0;right=0;bottom=0;align=left;verticalAlign=top;fillColor=#f5f5f5;spacingLeft=34;spacingRight=4;overflow=hidden;rotatable=0;points=[[0,0.5],[1,0.5]];portConstraint=eastwest;dropTarget=0;fontSize=12;fontColor=#333333;strokeColor=#666666;" vertex="1" parent="480">
                    <mxGeometry y="134" width="200" height="26" as="geometry"/>
                </mxCell>
                <mxCell id="03yuZUI37aBGbd1FjUiY-677" value="obj" style="shape=partialRectangle;top=0;left=0;bottom=0;fillColor=#f5f5f5;align=left;verticalAlign=top;spacingLeft=4;spacingRight=4;overflow=hidden;rotatable=0;points=[];portConstraint=eastwest;part=1;fontSize=12;fontColor=#333333;strokeColor=#666666;" vertex="1" connectable="0" parent="03yuZUI37aBGbd1FjUiY-676">
                    <mxGeometry width="30" height="26" as="geometry"/>
                </mxCell>
                <mxCell id="491" value="status" style="shape=partialRectangle;top=0;left=0;right=0;bottom=0;align=left;verticalAlign=top;fillColor=#f5f5f5;spacingLeft=34;spacingRight=4;overflow=hidden;rotatable=0;points=[[0,0.5],[1,0.5]];portConstraint=eastwest;dropTarget=0;fontSize=12;fontColor=#333333;strokeColor=#666666;" vertex="1" parent="480">
                    <mxGeometry y="160" width="200" height="26" as="geometry"/>
                </mxCell>
                <mxCell id="492" value="enum" style="shape=partialRectangle;top=0;left=0;bottom=0;fillColor=#f5f5f5;align=left;verticalAlign=top;spacingLeft=4;spacingRight=4;overflow=hidden;rotatable=0;points=[];portConstraint=eastwest;part=1;fontSize=12;fontColor=#333333;strokeColor=#666666;" vertex="1" connectable="0" parent="491">
                    <mxGeometry width="30" height="26" as="geometry"/>
                </mxCell>
                <mxCell id="493" value="created_at" style="shape=partialRectangle;top=0;left=0;right=0;bottom=0;align=left;verticalAlign=top;fillColor=#f5f5f5;spacingLeft=34;spacingRight=4;overflow=hidden;rotatable=0;points=[[0,0.5],[1,0.5]];portConstraint=eastwest;dropTarget=0;fontSize=12;fontColor=#333333;strokeColor=#666666;" vertex="1" parent="480">
                    <mxGeometry y="186" width="200" height="26" as="geometry"/>
                </mxCell>
                <mxCell id="494" value="" style="shape=partialRectangle;top=0;left=0;bottom=0;fillColor=#f5f5f5;align=left;verticalAlign=top;spacingLeft=4;spacingRight=4;overflow=hidden;rotatable=0;points=[];portConstraint=eastwest;part=1;fontSize=12;fontColor=#333333;strokeColor=#666666;" vertex="1" connectable="0" parent="493">
                    <mxGeometry width="30" height="26" as="geometry"/>
                </mxCell>
                <mxCell id="495" value="updated_at" style="shape=partialRectangle;top=0;left=0;right=0;bottom=0;align=left;verticalAlign=top;fillColor=#f5f5f5;spacingLeft=34;spacingRight=4;overflow=hidden;rotatable=0;points=[[0,0.5],[1,0.5]];portConstraint=eastwest;dropTarget=0;fontSize=12;fontColor=#333333;strokeColor=#666666;" vertex="1" parent="480">
                    <mxGeometry y="212" width="200" height="26" as="geometry"/>
                </mxCell>
                <mxCell id="496" value="" style="shape=partialRectangle;top=0;left=0;bottom=0;fillColor=#f5f5f5;align=left;verticalAlign=top;spacingLeft=4;spacingRight=4;overflow=hidden;rotatable=0;points=[];portConstraint=eastwest;part=1;fontSize=12;fontColor=#333333;strokeColor=#666666;" vertex="1" connectable="0" parent="495">
                    <mxGeometry width="30" height="26" as="geometry"/>
                </mxCell>
                <mxCell id="497" value="jobs" style="swimlane;fontStyle=0;childLayout=stackLayout;horizontal=1;startSize=26;fillColor=#f5f5f5;horizontalStack=0;resizeParent=1;resizeParentMax=0;resizeLast=0;collapsible=1;marginBottom=0;swimlaneFillColor=#ffffff;align=center;fontSize=14;fontColor=#333333;strokeColor=#666666;" vertex="1" parent="zu2tDFOteG_yooguGcxT-1">
                    <mxGeometry x="948" y="30" width="160" height="398" as="geometry"/>
                </mxCell>
                <mxCell id="498" value="id" style="shape=partialRectangle;top=0;left=0;right=0;bottom=1;align=left;verticalAlign=middle;fillColor=#f5f5f5;spacingLeft=34;spacingRight=4;overflow=hidden;rotatable=0;points=[[0,0.5],[1,0.5]];portConstraint=eastwest;dropTarget=0;fontStyle=5;fontSize=12;fontColor=#333333;strokeColor=#666666;" vertex="1" parent="497">
                    <mxGeometry y="26" width="160" height="30" as="geometry"/>
                </mxCell>
                <mxCell id="499" value="PK" style="shape=partialRectangle;top=0;left=0;bottom=0;fillColor=#f5f5f5;align=left;verticalAlign=middle;spacingLeft=4;spacingRight=4;overflow=hidden;rotatable=0;points=[];portConstraint=eastwest;part=1;fontSize=12;fontColor=#333333;strokeColor=#666666;" vertex="1" connectable="0" parent="498">
                    <mxGeometry width="30" height="30" as="geometry"/>
                </mxCell>
                <mxCell id="500" value="queue" style="shape=partialRectangle;top=0;left=0;right=0;bottom=0;align=left;verticalAlign=top;fillColor=#f5f5f5;spacingLeft=34;spacingRight=4;overflow=hidden;rotatable=0;points=[[0,0.5],[1,0.5]];portConstraint=eastwest;dropTarget=0;fontSize=12;fontColor=#333333;strokeColor=#666666;" vertex="1" parent="497">
                    <mxGeometry y="56" width="160" height="26" as="geometry"/>
                </mxCell>
                <mxCell id="501" value="" style="shape=partialRectangle;top=0;left=0;bottom=0;fillColor=#f5f5f5;align=left;verticalAlign=top;spacingLeft=4;spacingRight=4;overflow=hidden;rotatable=0;points=[];portConstraint=eastwest;part=1;fontSize=12;fontColor=#333333;strokeColor=#666666;" vertex="1" connectable="0" parent="500">
                    <mxGeometry width="30" height="26" as="geometry"/>
                </mxCell>
                <mxCell id="502" value="payload" style="shape=partialRectangle;top=0;left=0;right=0;bottom=0;align=left;verticalAlign=top;fillColor=#f5f5f5;spacingLeft=34;spacingRight=4;overflow=hidden;rotatable=0;points=[[0,0.5],[1,0.5]];portConstraint=eastwest;dropTarget=0;fontSize=12;fontColor=#333333;strokeColor=#666666;" vertex="1" parent="497">
                    <mxGeometry y="82" width="160" height="26" as="geometry"/>
                </mxCell>
                <mxCell id="503" value="" style="shape=partialRectangle;top=0;left=0;bottom=0;fillColor=#f5f5f5;align=left;verticalAlign=top;spacingLeft=4;spacingRight=4;overflow=hidden;rotatable=0;points=[];portConstraint=eastwest;part=1;fontSize=12;fontColor=#333333;strokeColor=#666666;" vertex="1" connectable="0" parent="502">
                    <mxGeometry width="30" height="26" as="geometry"/>
                </mxCell>
                <mxCell id="504" value="attempts" style="shape=partialRectangle;top=0;left=0;right=0;bottom=0;align=left;verticalAlign=top;fillColor=#f5f5f5;spacingLeft=34;spacingRight=4;overflow=hidden;rotatable=0;points=[[0,0.5],[1,0.5]];portConstraint=eastwest;dropTarget=0;fontSize=12;fontColor=#333333;strokeColor=#666666;" vertex="1" parent="497">
                    <mxGeometry y="108" width="160" height="26" as="geometry"/>
                </mxCell>
                <mxCell id="505" value="" style="shape=partialRectangle;top=0;left=0;bottom=0;fillColor=#f5f5f5;align=left;verticalAlign=top;spacingLeft=4;spacingRight=4;overflow=hidden;rotatable=0;points=[];portConstraint=eastwest;part=1;fontSize=12;fontColor=#333333;strokeColor=#666666;" vertex="1" connectable="0" parent="504">
                    <mxGeometry width="30" height="26" as="geometry"/>
                </mxCell>
                <mxCell id="506" value="reserved_at" style="shape=partialRectangle;top=0;left=0;right=0;bottom=0;align=left;verticalAlign=top;fillColor=#f5f5f5;spacingLeft=34;spacingRight=4;overflow=hidden;rotatable=0;points=[[0,0.5],[1,0.5]];portConstraint=eastwest;dropTarget=0;fontSize=12;fontColor=#333333;strokeColor=#666666;" vertex="1" parent="497">
                    <mxGeometry y="134" width="160" height="26" as="geometry"/>
                </mxCell>
                <mxCell id="507" value="" style="shape=partialRectangle;top=0;left=0;bottom=0;fillColor=#f5f5f5;align=left;verticalAlign=top;spacingLeft=4;spacingRight=4;overflow=hidden;rotatable=0;points=[];portConstraint=eastwest;part=1;fontSize=12;fontColor=#333333;strokeColor=#666666;" vertex="1" connectable="0" parent="506">
                    <mxGeometry width="30" height="26" as="geometry"/>
                </mxCell>
                <mxCell id="508" value="available_at" style="shape=partialRectangle;top=0;left=0;right=0;bottom=0;align=left;verticalAlign=top;fillColor=#f5f5f5;spacingLeft=34;spacingRight=4;overflow=hidden;rotatable=0;points=[[0,0.5],[1,0.5]];portConstraint=eastwest;dropTarget=0;fontSize=12;fontColor=#333333;strokeColor=#666666;" vertex="1" parent="497">
                    <mxGeometry y="160" width="160" height="26" as="geometry"/>
                </mxCell>
                <mxCell id="509" value="" style="shape=partialRectangle;top=0;left=0;bottom=0;fillColor=#f5f5f5;align=left;verticalAlign=top;spacingLeft=4;spacingRight=4;overflow=hidden;rotatable=0;points=[];portConstraint=eastwest;part=1;fontSize=12;fontColor=#333333;strokeColor=#666666;" vertex="1" connectable="0" parent="508">
                    <mxGeometry width="30" height="26" as="geometry"/>
                </mxCell>
                <mxCell id="510" value="created_at" style="shape=partialRectangle;top=0;left=0;right=0;bottom=0;align=left;verticalAlign=top;fillColor=#f5f5f5;spacingLeft=34;spacingRight=4;overflow=hidden;rotatable=0;points=[[0,0.5],[1,0.5]];portConstraint=eastwest;dropTarget=0;fontSize=12;fontColor=#333333;strokeColor=#666666;" vertex="1" parent="497">
                    <mxGeometry y="186" width="160" height="26" as="geometry"/>
                </mxCell>
                <mxCell id="511" value="" style="shape=partialRectangle;top=0;left=0;bottom=0;fillColor=#f5f5f5;align=left;verticalAlign=top;spacingLeft=4;spacingRight=4;overflow=hidden;rotatable=0;points=[];portConstraint=eastwest;part=1;fontSize=12;fontColor=#333333;strokeColor=#666666;" vertex="1" connectable="0" parent="510">
                    <mxGeometry width="30" height="26" as="geometry"/>
                </mxCell>
                <mxCell id="512" value="failed_jobs" style="swimlane;fontStyle=0;childLayout=stackLayout;horizontal=1;startSize=26;fillColor=#f5f5f5;horizontalStack=0;resizeParent=1;resizeParentMax=0;resizeLast=0;collapsible=1;marginBottom=0;swimlaneFillColor=#ffffff;align=center;fontSize=14;fontColor=#333333;strokeColor=#666666;" vertex="1" parent="497">
                    <mxGeometry y="212" width="160" height="186" as="geometry"/>
                </mxCell>
                <mxCell id="513" value="id" style="shape=partialRectangle;top=0;left=0;right=0;bottom=1;align=left;verticalAlign=middle;fillColor=#f5f5f5;spacingLeft=34;spacingRight=4;overflow=hidden;rotatable=0;points=[[0,0.5],[1,0.5]];portConstraint=eastwest;dropTarget=0;fontStyle=5;fontSize=12;fontColor=#333333;strokeColor=#666666;" vertex="1" parent="512">
                    <mxGeometry y="26" width="160" height="30" as="geometry"/>
                </mxCell>
                <mxCell id="514" value="PK" style="shape=partialRectangle;top=0;left=0;bottom=0;fillColor=#f5f5f5;align=left;verticalAlign=middle;spacingLeft=4;spacingRight=4;overflow=hidden;rotatable=0;points=[];portConstraint=eastwest;part=1;fontSize=12;fontColor=#333333;strokeColor=#666666;" vertex="1" connectable="0" parent="513">
                    <mxGeometry width="30" height="30" as="geometry"/>
                </mxCell>
                <mxCell id="515" value="connection" style="shape=partialRectangle;top=0;left=0;right=0;bottom=0;align=left;verticalAlign=top;fillColor=#f5f5f5;spacingLeft=34;spacingRight=4;overflow=hidden;rotatable=0;points=[[0,0.5],[1,0.5]];portConstraint=eastwest;dropTarget=0;fontSize=12;fontColor=#333333;strokeColor=#666666;" vertex="1" parent="512">
                    <mxGeometry y="56" width="160" height="26" as="geometry"/>
                </mxCell>
                <mxCell id="516" value="" style="shape=partialRectangle;top=0;left=0;bottom=0;fillColor=#f5f5f5;align=left;verticalAlign=top;spacingLeft=4;spacingRight=4;overflow=hidden;rotatable=0;points=[];portConstraint=eastwest;part=1;fontSize=12;fontColor=#333333;strokeColor=#666666;" vertex="1" connectable="0" parent="515">
                    <mxGeometry width="30" height="26" as="geometry"/>
                </mxCell>
                <mxCell id="517" value="queue" style="shape=partialRectangle;top=0;left=0;right=0;bottom=0;align=left;verticalAlign=top;fillColor=#f5f5f5;spacingLeft=34;spacingRight=4;overflow=hidden;rotatable=0;points=[[0,0.5],[1,0.5]];portConstraint=eastwest;dropTarget=0;fontSize=12;fontColor=#333333;strokeColor=#666666;" vertex="1" parent="512">
                    <mxGeometry y="82" width="160" height="26" as="geometry"/>
                </mxCell>
                <mxCell id="518" value="" style="shape=partialRectangle;top=0;left=0;bottom=0;fillColor=#f5f5f5;align=left;verticalAlign=top;spacingLeft=4;spacingRight=4;overflow=hidden;rotatable=0;points=[];portConstraint=eastwest;part=1;fontSize=12;fontColor=#333333;strokeColor=#666666;" vertex="1" connectable="0" parent="517">
                    <mxGeometry width="30" height="26" as="geometry"/>
                </mxCell>
                <mxCell id="519" value="payload" style="shape=partialRectangle;top=0;left=0;right=0;bottom=0;align=left;verticalAlign=top;fillColor=#f5f5f5;spacingLeft=34;spacingRight=4;overflow=hidden;rotatable=0;points=[[0,0.5],[1,0.5]];portConstraint=eastwest;dropTarget=0;fontSize=12;fontColor=#333333;strokeColor=#666666;" vertex="1" parent="512">
                    <mxGeometry y="108" width="160" height="26" as="geometry"/>
                </mxCell>
                <mxCell id="520" value="" style="shape=partialRectangle;top=0;left=0;bottom=0;fillColor=#f5f5f5;align=left;verticalAlign=top;spacingLeft=4;spacingRight=4;overflow=hidden;rotatable=0;points=[];portConstraint=eastwest;part=1;fontSize=12;fontColor=#333333;strokeColor=#666666;" vertex="1" connectable="0" parent="519">
                    <mxGeometry width="30" height="26" as="geometry"/>
                </mxCell>
                <mxCell id="521" value="exception" style="shape=partialRectangle;top=0;left=0;right=0;bottom=0;align=left;verticalAlign=top;fillColor=#f5f5f5;spacingLeft=34;spacingRight=4;overflow=hidden;rotatable=0;points=[[0,0.5],[1,0.5]];portConstraint=eastwest;dropTarget=0;fontSize=12;fontColor=#333333;strokeColor=#666666;" vertex="1" parent="512">
                    <mxGeometry y="134" width="160" height="26" as="geometry"/>
                </mxCell>
                <mxCell id="522" value="" style="shape=partialRectangle;top=0;left=0;bottom=0;fillColor=#f5f5f5;align=left;verticalAlign=top;spacingLeft=4;spacingRight=4;overflow=hidden;rotatable=0;points=[];portConstraint=eastwest;part=1;fontSize=12;fontColor=#333333;strokeColor=#666666;" vertex="1" connectable="0" parent="521">
                    <mxGeometry width="30" height="26" as="geometry"/>
                </mxCell>
                <mxCell id="523" value="failed_at" style="shape=partialRectangle;top=0;left=0;right=0;bottom=0;align=left;verticalAlign=top;fillColor=#f5f5f5;spacingLeft=34;spacingRight=4;overflow=hidden;rotatable=0;points=[[0,0.5],[1,0.5]];portConstraint=eastwest;dropTarget=0;fontSize=12;fontColor=#333333;strokeColor=#666666;" vertex="1" parent="512">
                    <mxGeometry y="160" width="160" height="26" as="geometry"/>
                </mxCell>
                <mxCell id="524" value="" style="shape=partialRectangle;top=0;left=0;bottom=0;fillColor=#f5f5f5;align=left;verticalAlign=top;spacingLeft=4;spacingRight=4;overflow=hidden;rotatable=0;points=[];portConstraint=eastwest;part=1;fontSize=12;fontColor=#333333;strokeColor=#666666;" vertex="1" connectable="0" parent="523">
                    <mxGeometry width="30" height="26" as="geometry"/>
                </mxCell>
                <mxCell id="525" value="settings" style="swimlane;fontStyle=0;childLayout=stackLayout;horizontal=1;startSize=26;fillColor=#f5f5f5;horizontalStack=0;resizeParent=1;resizeParentMax=0;resizeLast=0;collapsible=1;marginBottom=0;swimlaneFillColor=#ffffff;align=center;fontSize=14;fontColor=#333333;strokeColor=#666666;" vertex="1" parent="zu2tDFOteG_yooguGcxT-1">
                    <mxGeometry x="948" y="-522" width="160" height="160" as="geometry">
                        <mxRectangle x="500" y="340" width="60" height="26" as="alternateBounds"/>
                    </mxGeometry>
                </mxCell>
                <mxCell id="526" value="id" style="shape=partialRectangle;top=0;left=0;right=0;bottom=1;align=left;verticalAlign=middle;fillColor=#f5f5f5;spacingLeft=34;spacingRight=4;overflow=hidden;rotatable=0;points=[[0,0.5],[1,0.5]];portConstraint=eastwest;dropTarget=0;fontStyle=5;fontSize=12;fontColor=#333333;strokeColor=#666666;" vertex="1" parent="525">
                    <mxGeometry y="26" width="160" height="30" as="geometry"/>
                </mxCell>
                <mxCell id="527" value="PK" style="shape=partialRectangle;top=0;left=0;bottom=0;fillColor=#f5f5f5;align=left;verticalAlign=middle;spacingLeft=4;spacingRight=4;overflow=hidden;rotatable=0;points=[];portConstraint=eastwest;part=1;fontSize=12;fontColor=#333333;strokeColor=#666666;" vertex="1" connectable="0" parent="526">
                    <mxGeometry width="30" height="30" as="geometry"/>
                </mxCell>
                <mxCell id="528" value="key" style="shape=partialRectangle;top=0;left=0;right=0;bottom=0;align=left;verticalAlign=top;fillColor=#f5f5f5;spacingLeft=34;spacingRight=4;overflow=hidden;rotatable=0;points=[[0,0.5],[1,0.5]];portConstraint=eastwest;dropTarget=0;fontSize=12;fontColor=#333333;strokeColor=#666666;" vertex="1" parent="525">
                    <mxGeometry y="56" width="160" height="26" as="geometry"/>
                </mxCell>
                <mxCell id="529" value="" style="shape=partialRectangle;top=0;left=0;bottom=0;fillColor=#f5f5f5;align=left;verticalAlign=top;spacingLeft=4;spacingRight=4;overflow=hidden;rotatable=0;points=[];portConstraint=eastwest;part=1;fontSize=12;fontColor=#333333;strokeColor=#666666;" vertex="1" connectable="0" parent="528">
                    <mxGeometry width="30" height="26" as="geometry"/>
                </mxCell>
                <mxCell id="530" value="data" style="shape=partialRectangle;top=0;left=0;right=0;bottom=0;align=left;verticalAlign=top;fillColor=#f5f5f5;spacingLeft=34;spacingRight=4;overflow=hidden;rotatable=0;points=[[0,0.5],[1,0.5]];portConstraint=eastwest;dropTarget=0;fontSize=12;fontColor=#333333;strokeColor=#666666;" vertex="1" parent="525">
                    <mxGeometry y="82" width="160" height="26" as="geometry"/>
                </mxCell>
                <mxCell id="531" value="array" style="shape=partialRectangle;top=0;left=0;bottom=0;fillColor=#f5f5f5;align=left;verticalAlign=top;spacingLeft=4;spacingRight=4;overflow=hidden;rotatable=0;points=[];portConstraint=eastwest;part=1;fontSize=12;fontColor=#333333;strokeColor=#666666;" vertex="1" connectable="0" parent="530">
                    <mxGeometry width="30" height="26" as="geometry"/>
                </mxCell>
                <mxCell id="532" value="created_at" style="shape=partialRectangle;top=0;left=0;right=0;bottom=0;align=left;verticalAlign=top;fillColor=#f5f5f5;spacingLeft=34;spacingRight=4;overflow=hidden;rotatable=0;points=[[0,0.5],[1,0.5]];portConstraint=eastwest;dropTarget=0;fontSize=12;fontColor=#333333;strokeColor=#666666;" vertex="1" parent="525">
                    <mxGeometry y="108" width="160" height="26" as="geometry"/>
                </mxCell>
                <mxCell id="533" value="" style="shape=partialRectangle;top=0;left=0;bottom=0;fillColor=#f5f5f5;align=left;verticalAlign=top;spacingLeft=4;spacingRight=4;overflow=hidden;rotatable=0;points=[];portConstraint=eastwest;part=1;fontSize=12;fontColor=#333333;strokeColor=#666666;" vertex="1" connectable="0" parent="532">
                    <mxGeometry width="30" height="26" as="geometry"/>
                </mxCell>
                <mxCell id="534" value="updated_at" style="shape=partialRectangle;top=0;left=0;right=0;bottom=0;align=left;verticalAlign=top;fillColor=#f5f5f5;spacingLeft=34;spacingRight=4;overflow=hidden;rotatable=0;points=[[0,0.5],[1,0.5]];portConstraint=eastwest;dropTarget=0;fontSize=12;fontColor=#333333;strokeColor=#666666;" vertex="1" parent="525">
                    <mxGeometry y="134" width="160" height="26" as="geometry"/>
                </mxCell>
                <mxCell id="535" value="" style="shape=partialRectangle;top=0;left=0;bottom=0;fillColor=#f5f5f5;align=left;verticalAlign=top;spacingLeft=4;spacingRight=4;overflow=hidden;rotatable=0;points=[];portConstraint=eastwest;part=1;fontSize=12;fontColor=#333333;strokeColor=#666666;" vertex="1" connectable="0" parent="534">
                    <mxGeometry width="30" height="26" as="geometry"/>
                </mxCell>
                <mxCell id="536" value="password_resets" style="swimlane;fontStyle=0;childLayout=stackLayout;horizontal=1;startSize=26;fillColor=#f5f5f5;horizontalStack=0;resizeParent=1;resizeParentMax=0;resizeLast=0;collapsible=1;marginBottom=0;swimlaneFillColor=#ffffff;align=center;fontSize=14;fontColor=#333333;strokeColor=#666666;" vertex="1" parent="zu2tDFOteG_yooguGcxT-1">
                    <mxGeometry x="1141" y="-160" width="160" height="238" as="geometry"/>
                </mxCell>
                <mxCell id="537" value="email" style="shape=partialRectangle;top=0;left=0;right=0;bottom=0;align=left;verticalAlign=top;fillColor=#f5f5f5;spacingLeft=34;spacingRight=4;overflow=hidden;rotatable=0;points=[[0,0.5],[1,0.5]];portConstraint=eastwest;dropTarget=0;fontSize=12;fontColor=#333333;strokeColor=#666666;" vertex="1" parent="536">
                    <mxGeometry y="26" width="160" height="26" as="geometry"/>
                </mxCell>
                <mxCell id="538" value="" style="shape=partialRectangle;top=0;left=0;bottom=0;fillColor=#f5f5f5;align=left;verticalAlign=top;spacingLeft=4;spacingRight=4;overflow=hidden;rotatable=0;points=[];portConstraint=eastwest;part=1;fontSize=12;fontColor=#333333;strokeColor=#666666;" vertex="1" connectable="0" parent="537">
                    <mxGeometry width="30" height="26" as="geometry"/>
                </mxCell>
                <mxCell id="539" value="token&#10;" style="shape=partialRectangle;top=0;left=0;right=0;bottom=0;align=left;verticalAlign=top;fillColor=#f5f5f5;spacingLeft=34;spacingRight=4;overflow=hidden;rotatable=0;points=[[0,0.5],[1,0.5]];portConstraint=eastwest;dropTarget=0;fontSize=12;fontColor=#333333;strokeColor=#666666;" vertex="1" parent="536">
                    <mxGeometry y="52" width="160" height="26" as="geometry"/>
                </mxCell>
                <mxCell id="540" value="" style="shape=partialRectangle;top=0;left=0;bottom=0;fillColor=#f5f5f5;align=left;verticalAlign=top;spacingLeft=4;spacingRight=4;overflow=hidden;rotatable=0;points=[];portConstraint=eastwest;part=1;fontSize=12;fontColor=#333333;strokeColor=#666666;" vertex="1" connectable="0" parent="539">
                    <mxGeometry width="30" height="26" as="geometry"/>
                </mxCell>
                <mxCell id="541" value="notifications" style="swimlane;fontStyle=0;childLayout=stackLayout;horizontal=1;startSize=26;fillColor=#f5f5f5;horizontalStack=0;resizeParent=1;resizeParentMax=0;resizeLast=0;collapsible=1;marginBottom=0;swimlaneFillColor=#ffffff;align=center;fontSize=14;fontColor=#333333;strokeColor=#666666;" vertex="1" parent="536">
                    <mxGeometry y="78" width="160" height="160" as="geometry"/>
                </mxCell>
                <mxCell id="542" value="id" style="shape=partialRectangle;top=0;left=0;right=0;bottom=1;align=left;verticalAlign=middle;fillColor=#f5f5f5;spacingLeft=34;spacingRight=4;overflow=hidden;rotatable=0;points=[[0,0.5],[1,0.5]];portConstraint=eastwest;dropTarget=0;fontStyle=5;fontSize=12;fontColor=#333333;strokeColor=#666666;" vertex="1" parent="541">
                    <mxGeometry y="26" width="160" height="30" as="geometry"/>
                </mxCell>
                <mxCell id="543" value="PK" style="shape=partialRectangle;top=0;left=0;bottom=0;fillColor=#f5f5f5;align=left;verticalAlign=middle;spacingLeft=4;spacingRight=4;overflow=hidden;rotatable=0;points=[];portConstraint=eastwest;part=1;fontSize=12;fontColor=#333333;strokeColor=#666666;" vertex="1" connectable="0" parent="542">
                    <mxGeometry width="30" height="30" as="geometry"/>
                </mxCell>
                <mxCell id="544" value="type" style="shape=partialRectangle;top=0;left=0;right=0;bottom=0;align=left;verticalAlign=top;fillColor=#f5f5f5;spacingLeft=34;spacingRight=4;overflow=hidden;rotatable=0;points=[[0,0.5],[1,0.5]];portConstraint=eastwest;dropTarget=0;fontSize=12;fontColor=#333333;strokeColor=#666666;" vertex="1" parent="541">
                    <mxGeometry y="56" width="160" height="26" as="geometry"/>
                </mxCell>
                <mxCell id="545" value="" style="shape=partialRectangle;top=0;left=0;bottom=0;fillColor=#f5f5f5;align=left;verticalAlign=top;spacingLeft=4;spacingRight=4;overflow=hidden;rotatable=0;points=[];portConstraint=eastwest;part=1;fontSize=12;fontColor=#333333;strokeColor=#666666;" vertex="1" connectable="0" parent="544">
                    <mxGeometry width="30" height="26" as="geometry"/>
                </mxCell>
                <mxCell id="546" value="notifiable_id" style="shape=partialRectangle;top=0;left=0;right=0;bottom=0;align=left;verticalAlign=top;fillColor=#f5f5f5;spacingLeft=34;spacingRight=4;overflow=hidden;rotatable=0;points=[[0,0.5],[1,0.5]];portConstraint=eastwest;dropTarget=0;fontSize=12;fontColor=#333333;strokeColor=#666666;" vertex="1" parent="541">
                    <mxGeometry y="82" width="160" height="26" as="geometry"/>
                </mxCell>
                <mxCell id="547" value="" style="shape=partialRectangle;top=0;left=0;bottom=0;fillColor=#f5f5f5;align=left;verticalAlign=top;spacingLeft=4;spacingRight=4;overflow=hidden;rotatable=0;points=[];portConstraint=eastwest;part=1;fontSize=12;fontColor=#333333;strokeColor=#666666;" vertex="1" connectable="0" parent="546">
                    <mxGeometry width="30" height="26" as="geometry"/>
                </mxCell>
                <mxCell id="548" value="notifiable_type" style="shape=partialRectangle;top=0;left=0;right=0;bottom=0;align=left;verticalAlign=top;fillColor=#f5f5f5;spacingLeft=34;spacingRight=4;overflow=hidden;rotatable=0;points=[[0,0.5],[1,0.5]];portConstraint=eastwest;dropTarget=0;fontSize=12;fontColor=#333333;strokeColor=#666666;" vertex="1" parent="541">
                    <mxGeometry y="108" width="160" height="26" as="geometry"/>
                </mxCell>
                <mxCell id="549" value="" style="shape=partialRectangle;top=0;left=0;bottom=0;fillColor=#f5f5f5;align=left;verticalAlign=top;spacingLeft=4;spacingRight=4;overflow=hidden;rotatable=0;points=[];portConstraint=eastwest;part=1;fontSize=12;fontColor=#333333;strokeColor=#666666;" vertex="1" connectable="0" parent="548">
                    <mxGeometry width="30" height="26" as="geometry"/>
                </mxCell>
                <mxCell id="550" value="read_at" style="shape=partialRectangle;top=0;left=0;right=0;bottom=0;align=left;verticalAlign=top;fillColor=#f5f5f5;spacingLeft=34;spacingRight=4;overflow=hidden;rotatable=0;points=[[0,0.5],[1,0.5]];portConstraint=eastwest;dropTarget=0;fontSize=12;fontColor=#333333;strokeColor=#666666;" vertex="1" parent="541">
                    <mxGeometry y="134" width="160" height="26" as="geometry"/>
                </mxCell>
                <mxCell id="551" value="" style="shape=partialRectangle;top=0;left=0;bottom=0;fillColor=#f5f5f5;align=left;verticalAlign=top;spacingLeft=4;spacingRight=4;overflow=hidden;rotatable=0;points=[];portConstraint=eastwest;part=1;fontSize=12;fontColor=#333333;strokeColor=#666666;" vertex="1" connectable="0" parent="550">
                    <mxGeometry width="30" height="26" as="geometry"/>
                </mxCell>
                <mxCell id="552" value="model_has_role" style="swimlane;fontStyle=0;childLayout=stackLayout;horizontal=1;startSize=26;fillColor=#f5f5f5;horizontalStack=0;resizeParent=1;resizeParentMax=0;resizeLast=0;collapsible=1;marginBottom=0;swimlaneFillColor=#ffffff;align=center;fontSize=14;fontColor=#333333;strokeColor=#666666;" vertex="1" parent="zu2tDFOteG_yooguGcxT-1">
                    <mxGeometry x="1360" y="-508.5" width="162" height="182" as="geometry"/>
                </mxCell>
                <mxCell id="553" value="model_id" style="shape=partialRectangle;top=0;left=0;right=0;bottom=0;align=left;verticalAlign=top;fillColor=#f5f5f5;spacingLeft=34;spacingRight=4;overflow=hidden;rotatable=0;points=[[0,0.5],[1,0.5]];portConstraint=eastwest;dropTarget=0;fontSize=12;fontColor=#333333;strokeColor=#666666;" vertex="1" parent="552">
                    <mxGeometry y="26" width="162" height="26" as="geometry"/>
                </mxCell>
                <mxCell id="554" value="FK" style="shape=partialRectangle;top=0;left=0;bottom=0;fillColor=#f5f5f5;align=left;verticalAlign=top;spacingLeft=4;spacingRight=4;overflow=hidden;rotatable=0;points=[];portConstraint=eastwest;part=1;fontSize=12;fontColor=#333333;strokeColor=#666666;" vertex="1" connectable="0" parent="553">
                    <mxGeometry width="30" height="26" as="geometry"/>
                </mxCell>
                <mxCell id="555" value="role_id" style="shape=partialRectangle;top=0;left=0;right=0;bottom=0;align=left;verticalAlign=top;fillColor=#f5f5f5;spacingLeft=34;spacingRight=4;overflow=hidden;rotatable=0;points=[[0,0.5],[1,0.5]];portConstraint=eastwest;dropTarget=0;fontSize=12;fontColor=#333333;strokeColor=#666666;" vertex="1" parent="552">
                    <mxGeometry y="52" width="162" height="26" as="geometry"/>
                </mxCell>
                <mxCell id="556" value="FK" style="shape=partialRectangle;top=0;left=0;bottom=0;fillColor=#f5f5f5;align=left;verticalAlign=top;spacingLeft=4;spacingRight=4;overflow=hidden;rotatable=0;points=[];portConstraint=eastwest;part=1;fontSize=12;fontColor=#333333;strokeColor=#666666;" vertex="1" connectable="0" parent="555">
                    <mxGeometry width="30" height="26" as="geometry"/>
                </mxCell>
                <mxCell id="557" value="model_type" style="shape=partialRectangle;top=0;left=0;right=0;bottom=0;align=left;verticalAlign=top;fillColor=#f5f5f5;spacingLeft=34;spacingRight=4;overflow=hidden;rotatable=0;points=[[0,0.5],[1,0.5]];portConstraint=eastwest;dropTarget=0;fontSize=12;fontColor=#333333;strokeColor=#666666;" vertex="1" parent="552">
                    <mxGeometry y="78" width="162" height="26" as="geometry"/>
                </mxCell>
                <mxCell id="558" value="" style="shape=partialRectangle;top=0;left=0;bottom=0;fillColor=#f5f5f5;align=left;verticalAlign=top;spacingLeft=4;spacingRight=4;overflow=hidden;rotatable=0;points=[];portConstraint=eastwest;part=1;fontSize=12;fontColor=#333333;strokeColor=#666666;" vertex="1" connectable="0" parent="557">
                    <mxGeometry width="30" height="26" as="geometry"/>
                </mxCell>
                <mxCell id="559" value="permission_has_role" style="swimlane;fontStyle=0;childLayout=stackLayout;horizontal=1;startSize=26;fillColor=#f5f5f5;horizontalStack=0;resizeParent=1;resizeParentMax=0;resizeLast=0;collapsible=1;marginBottom=0;swimlaneFillColor=#ffffff;align=center;fontSize=14;fontColor=#333333;strokeColor=#666666;" vertex="1" parent="552">
                    <mxGeometry y="104" width="162" height="78" as="geometry"/>
                </mxCell>
                <mxCell id="560" value="role_id" style="shape=partialRectangle;top=0;left=0;right=0;bottom=0;align=left;verticalAlign=top;fillColor=#f5f5f5;spacingLeft=34;spacingRight=4;overflow=hidden;rotatable=0;points=[[0,0.5],[1,0.5]];portConstraint=eastwest;dropTarget=0;fontSize=12;fontColor=#333333;strokeColor=#666666;" vertex="1" parent="559">
                    <mxGeometry y="26" width="162" height="26" as="geometry"/>
                </mxCell>
                <mxCell id="561" value="PK" style="shape=partialRectangle;top=0;left=0;bottom=0;fillColor=#f5f5f5;align=left;verticalAlign=top;spacingLeft=4;spacingRight=4;overflow=hidden;rotatable=0;points=[];portConstraint=eastwest;part=1;fontSize=12;fontColor=#333333;strokeColor=#666666;" vertex="1" connectable="0" parent="560">
                    <mxGeometry width="30" height="26" as="geometry"/>
                </mxCell>
                <mxCell id="562" value="permission_id" style="shape=partialRectangle;top=0;left=0;right=0;bottom=0;align=left;verticalAlign=top;fillColor=#f5f5f5;spacingLeft=34;spacingRight=4;overflow=hidden;rotatable=0;points=[[0,0.5],[1,0.5]];portConstraint=eastwest;dropTarget=0;fontSize=12;fontColor=#333333;strokeColor=#666666;" vertex="1" parent="559">
                    <mxGeometry y="52" width="162" height="26" as="geometry"/>
                </mxCell>
                <mxCell id="563" value="PK" style="shape=partialRectangle;top=0;left=0;bottom=0;fillColor=#f5f5f5;align=left;verticalAlign=top;spacingLeft=4;spacingRight=4;overflow=hidden;rotatable=0;points=[];portConstraint=eastwest;part=1;fontSize=12;fontColor=#333333;strokeColor=#666666;" vertex="1" connectable="0" parent="562">
                    <mxGeometry width="30" height="26" as="geometry"/>
                </mxCell>
                <mxCell id="564" value="roles" style="swimlane;fontStyle=0;childLayout=stackLayout;horizontal=1;startSize=26;fillColor=#f5f5f5;horizontalStack=0;resizeParent=1;resizeParentMax=0;resizeLast=0;collapsible=1;marginBottom=0;swimlaneFillColor=#ffffff;align=center;fontSize=14;fontColor=#333333;strokeColor=#666666;" vertex="1" parent="zu2tDFOteG_yooguGcxT-1">
                    <mxGeometry x="1141" y="-522" width="160" height="346" as="geometry"/>
                </mxCell>
                <mxCell id="565" value="id" style="shape=partialRectangle;top=0;left=0;right=0;bottom=1;align=left;verticalAlign=middle;fillColor=#f5f5f5;spacingLeft=34;spacingRight=4;overflow=hidden;rotatable=0;points=[[0,0.5],[1,0.5]];portConstraint=eastwest;dropTarget=0;fontStyle=5;fontSize=12;fontColor=#333333;strokeColor=#666666;" vertex="1" parent="564">
                    <mxGeometry y="26" width="160" height="30" as="geometry"/>
                </mxCell>
                <mxCell id="566" value="PK" style="shape=partialRectangle;top=0;left=0;bottom=0;fillColor=#f5f5f5;align=left;verticalAlign=middle;spacingLeft=4;spacingRight=4;overflow=hidden;rotatable=0;points=[];portConstraint=eastwest;part=1;fontSize=12;fontColor=#333333;strokeColor=#666666;" vertex="1" connectable="0" parent="565">
                    <mxGeometry width="30" height="30" as="geometry"/>
                </mxCell>
                <mxCell id="567" value="name" style="shape=partialRectangle;top=0;left=0;right=0;bottom=0;align=left;verticalAlign=top;fillColor=#f5f5f5;spacingLeft=34;spacingRight=4;overflow=hidden;rotatable=0;points=[[0,0.5],[1,0.5]];portConstraint=eastwest;dropTarget=0;fontSize=12;fontColor=#333333;strokeColor=#666666;" vertex="1" parent="564">
                    <mxGeometry y="56" width="160" height="26" as="geometry"/>
                </mxCell>
                <mxCell id="568" value="" style="shape=partialRectangle;top=0;left=0;bottom=0;fillColor=#f5f5f5;align=left;verticalAlign=top;spacingLeft=4;spacingRight=4;overflow=hidden;rotatable=0;points=[];portConstraint=eastwest;part=1;fontSize=12;fontColor=#333333;strokeColor=#666666;" vertex="1" connectable="0" parent="567">
                    <mxGeometry width="30" height="26" as="geometry"/>
                </mxCell>
                <mxCell id="569" value="guard_type" style="shape=partialRectangle;top=0;left=0;right=0;bottom=0;align=left;verticalAlign=top;fillColor=#f5f5f5;spacingLeft=34;spacingRight=4;overflow=hidden;rotatable=0;points=[[0,0.5],[1,0.5]];portConstraint=eastwest;dropTarget=0;fontSize=12;fontColor=#333333;strokeColor=#666666;" vertex="1" parent="564">
                    <mxGeometry y="82" width="160" height="26" as="geometry"/>
                </mxCell>
                <mxCell id="570" value="" style="shape=partialRectangle;top=0;left=0;bottom=0;fillColor=#f5f5f5;align=left;verticalAlign=top;spacingLeft=4;spacingRight=4;overflow=hidden;rotatable=0;points=[];portConstraint=eastwest;part=1;fontSize=12;fontColor=#333333;strokeColor=#666666;" vertex="1" connectable="0" parent="569">
                    <mxGeometry width="30" height="26" as="geometry"/>
                </mxCell>
                <mxCell id="571" value="guard_name" style="shape=partialRectangle;top=0;left=0;right=0;bottom=0;align=left;verticalAlign=top;fillColor=#f5f5f5;spacingLeft=34;spacingRight=4;overflow=hidden;rotatable=0;points=[[0,0.5],[1,0.5]];portConstraint=eastwest;dropTarget=0;fontSize=12;fontColor=#333333;strokeColor=#666666;" vertex="1" parent="564">
                    <mxGeometry y="108" width="160" height="26" as="geometry"/>
                </mxCell>
                <mxCell id="572" value="" style="shape=partialRectangle;top=0;left=0;bottom=0;fillColor=#f5f5f5;align=left;verticalAlign=top;spacingLeft=4;spacingRight=4;overflow=hidden;rotatable=0;points=[];portConstraint=eastwest;part=1;fontSize=12;fontColor=#333333;strokeColor=#666666;" vertex="1" connectable="0" parent="571">
                    <mxGeometry width="30" height="26" as="geometry"/>
                </mxCell>
                <mxCell id="575" value="status" style="shape=partialRectangle;top=0;left=0;right=0;bottom=0;align=left;verticalAlign=top;fillColor=#f5f5f5;spacingLeft=34;spacingRight=4;overflow=hidden;rotatable=0;points=[[0,0.5],[1,0.5]];portConstraint=eastwest;dropTarget=0;fontSize=12;fontColor=#333333;strokeColor=#666666;" vertex="1" parent="564">
                    <mxGeometry y="134" width="160" height="26" as="geometry"/>
                </mxCell>
                <mxCell id="576" value="enum" style="shape=partialRectangle;top=0;left=0;bottom=0;fillColor=#f5f5f5;align=left;verticalAlign=top;spacingLeft=4;spacingRight=4;overflow=hidden;rotatable=0;points=[];portConstraint=eastwest;part=1;fontSize=12;fontColor=#333333;strokeColor=#666666;" vertex="1" connectable="0" parent="575">
                    <mxGeometry width="30" height="26" as="geometry"/>
                </mxCell>
                <mxCell id="577" value="permission" style="swimlane;fontStyle=0;childLayout=stackLayout;horizontal=1;startSize=26;fillColor=#f5f5f5;horizontalStack=0;resizeParent=1;resizeParentMax=0;resizeLast=0;collapsible=1;marginBottom=0;swimlaneFillColor=#ffffff;align=center;fontSize=14;fontColor=#333333;strokeColor=#666666;" vertex="1" parent="564">
                    <mxGeometry y="160" width="160" height="186" as="geometry"/>
                </mxCell>
                <mxCell id="578" value="id" style="shape=partialRectangle;top=0;left=0;right=0;bottom=1;align=left;verticalAlign=middle;fillColor=#f5f5f5;spacingLeft=34;spacingRight=4;overflow=hidden;rotatable=0;points=[[0,0.5],[1,0.5]];portConstraint=eastwest;dropTarget=0;fontStyle=5;fontSize=12;fontColor=#333333;strokeColor=#666666;" vertex="1" parent="577">
                    <mxGeometry y="26" width="160" height="30" as="geometry"/>
                </mxCell>
                <mxCell id="579" value="PK" style="shape=partialRectangle;top=0;left=0;bottom=0;fillColor=#f5f5f5;align=left;verticalAlign=middle;spacingLeft=4;spacingRight=4;overflow=hidden;rotatable=0;points=[];portConstraint=eastwest;part=1;fontSize=12;fontColor=#333333;strokeColor=#666666;" vertex="1" connectable="0" parent="578">
                    <mxGeometry width="30" height="30" as="geometry"/>
                </mxCell>
                <mxCell id="580" value="name" style="shape=partialRectangle;top=0;left=0;right=0;bottom=0;align=left;verticalAlign=top;fillColor=#f5f5f5;spacingLeft=34;spacingRight=4;overflow=hidden;rotatable=0;points=[[0,0.5],[1,0.5]];portConstraint=eastwest;dropTarget=0;fontSize=12;fontColor=#333333;strokeColor=#666666;" vertex="1" parent="577">
                    <mxGeometry y="56" width="160" height="26" as="geometry"/>
                </mxCell>
                <mxCell id="581" value="" style="shape=partialRectangle;top=0;left=0;bottom=0;fillColor=#f5f5f5;align=left;verticalAlign=top;spacingLeft=4;spacingRight=4;overflow=hidden;rotatable=0;points=[];portConstraint=eastwest;part=1;fontSize=12;fontColor=#333333;strokeColor=#666666;" vertex="1" connectable="0" parent="580">
                    <mxGeometry width="30" height="26" as="geometry"/>
                </mxCell>
                <mxCell id="582" value="alias_name" style="shape=partialRectangle;top=0;left=0;right=0;bottom=0;align=left;verticalAlign=top;fillColor=#f5f5f5;spacingLeft=34;spacingRight=4;overflow=hidden;rotatable=0;points=[[0,0.5],[1,0.5]];portConstraint=eastwest;dropTarget=0;fontSize=12;fontColor=#333333;strokeColor=#666666;" vertex="1" parent="577">
                    <mxGeometry y="82" width="160" height="26" as="geometry"/>
                </mxCell>
                <mxCell id="583" value="" style="shape=partialRectangle;top=0;left=0;bottom=0;fillColor=#f5f5f5;align=left;verticalAlign=top;spacingLeft=4;spacingRight=4;overflow=hidden;rotatable=0;points=[];portConstraint=eastwest;part=1;fontSize=12;fontColor=#333333;strokeColor=#666666;" vertex="1" connectable="0" parent="582">
                    <mxGeometry width="30" height="26" as="geometry"/>
                </mxCell>
                <mxCell id="584" value="model_name" style="shape=partialRectangle;top=0;left=0;right=0;bottom=0;align=left;verticalAlign=top;fillColor=#f5f5f5;spacingLeft=34;spacingRight=4;overflow=hidden;rotatable=0;points=[[0,0.5],[1,0.5]];portConstraint=eastwest;dropTarget=0;fontSize=12;fontColor=#333333;strokeColor=#666666;" vertex="1" parent="577">
                    <mxGeometry y="108" width="160" height="26" as="geometry"/>
                </mxCell>
                <mxCell id="585" value="" style="shape=partialRectangle;top=0;left=0;bottom=0;fillColor=#f5f5f5;align=left;verticalAlign=top;spacingLeft=4;spacingRight=4;overflow=hidden;rotatable=0;points=[];portConstraint=eastwest;part=1;fontSize=12;fontColor=#333333;strokeColor=#666666;" vertex="1" connectable="0" parent="584">
                    <mxGeometry width="30" height="26" as="geometry"/>
                </mxCell>
                <mxCell id="586" value="guard_name" style="shape=partialRectangle;top=0;left=0;right=0;bottom=0;align=left;verticalAlign=top;fillColor=#f5f5f5;spacingLeft=34;spacingRight=4;overflow=hidden;rotatable=0;points=[[0,0.5],[1,0.5]];portConstraint=eastwest;dropTarget=0;fontSize=12;fontColor=#333333;strokeColor=#666666;" vertex="1" parent="577">
                    <mxGeometry y="134" width="160" height="26" as="geometry"/>
                </mxCell>
                <mxCell id="587" value="" style="shape=partialRectangle;top=0;left=0;bottom=0;fillColor=#f5f5f5;align=left;verticalAlign=top;spacingLeft=4;spacingRight=4;overflow=hidden;rotatable=0;points=[];portConstraint=eastwest;part=1;fontSize=12;fontColor=#333333;strokeColor=#666666;" vertex="1" connectable="0" parent="586">
                    <mxGeometry width="30" height="26" as="geometry"/>
                </mxCell>
                <mxCell id="590" value="status" style="shape=partialRectangle;top=0;left=0;right=0;bottom=0;align=left;verticalAlign=top;fillColor=#f5f5f5;spacingLeft=34;spacingRight=4;overflow=hidden;rotatable=0;points=[[0,0.5],[1,0.5]];portConstraint=eastwest;dropTarget=0;fontSize=12;fontColor=#333333;strokeColor=#666666;" vertex="1" parent="577">
                    <mxGeometry y="160" width="160" height="26" as="geometry"/>
                </mxCell>
                <mxCell id="591" value="enum" style="shape=partialRectangle;top=0;left=0;bottom=0;fillColor=#f5f5f5;align=left;verticalAlign=top;spacingLeft=4;spacingRight=4;overflow=hidden;rotatable=0;points=[];portConstraint=eastwest;part=1;fontSize=12;fontColor=#333333;strokeColor=#666666;" vertex="1" connectable="0" parent="590">
                    <mxGeometry width="30" height="26" as="geometry"/>
                </mxCell>
                <mxCell id="592" style="edgeStyle=orthogonalEdgeStyle;rounded=0;orthogonalLoop=1;jettySize=auto;html=1;exitX=1;exitY=0.5;exitDx=0;exitDy=0;fillColor=#f5f5f5;strokeColor=#666666;" edge="1" parent="zu2tDFOteG_yooguGcxT-1" source="578" target="562">
                    <mxGeometry relative="1" as="geometry"/>
                </mxCell>
                <mxCell id="593" style="edgeStyle=orthogonalEdgeStyle;rounded=0;orthogonalLoop=1;jettySize=auto;html=1;fillColor=#f5f5f5;strokeColor=#666666;" edge="1" parent="zu2tDFOteG_yooguGcxT-1" source="565" target="560">
                    <mxGeometry relative="1" as="geometry"/>
                </mxCell>
                <mxCell id="594" style="edgeStyle=orthogonalEdgeStyle;rounded=0;orthogonalLoop=1;jettySize=auto;html=1;fillColor=#f5f5f5;strokeColor=#666666;" edge="1" parent="zu2tDFOteG_yooguGcxT-1" source="565" target="555">
                    <mxGeometry relative="1" as="geometry"/>
                </mxCell>
                <mxCell id="595" style="edgeStyle=orthogonalEdgeStyle;rounded=0;orthogonalLoop=1;jettySize=auto;html=1;exitX=1;exitY=0.5;exitDx=0;exitDy=0;entryX=0;entryY=0.5;entryDx=0;entryDy=0;" edge="1" parent="zu2tDFOteG_yooguGcxT-1" source="481" target="466">
                    <mxGeometry relative="1" as="geometry"/>
                </mxCell>
                <mxCell id="596" style="edgeStyle=orthogonalEdgeStyle;rounded=0;orthogonalLoop=1;jettySize=auto;html=1;exitX=1;exitY=0.5;exitDx=0;exitDy=0;entryX=0;entryY=0.5;entryDx=0;entryDy=0;" edge="1" parent="zu2tDFOteG_yooguGcxT-1" source="481" target="468">
                    <mxGeometry relative="1" as="geometry"/>
                </mxCell>
                <mxCell id="597" style="edgeStyle=orthogonalEdgeStyle;rounded=0;orthogonalLoop=1;jettySize=auto;html=1;exitX=1;exitY=0.5;exitDx=0;exitDy=0;entryX=1;entryY=0.5;entryDx=0;entryDy=0;" edge="1" parent="zu2tDFOteG_yooguGcxT-1" source="462" target="441">
                    <mxGeometry relative="1" as="geometry"/>
                </mxCell>
                <mxCell id="598" value="views" style="swimlane;fontStyle=0;childLayout=stackLayout;horizontal=1;startSize=26;fillColor=#f5f5f5;horizontalStack=0;resizeParent=1;resizeParentMax=0;resizeLast=0;collapsible=1;marginBottom=0;swimlaneFillColor=#ffffff;align=center;fontSize=14;fontColor=#333333;strokeColor=#666666;" vertex="1" parent="zu2tDFOteG_yooguGcxT-1">
                    <mxGeometry x="1356" y="290" width="162" height="160" as="geometry"/>
                </mxCell>
                <mxCell id="599" value="id" style="shape=partialRectangle;top=0;left=0;right=0;bottom=1;align=left;verticalAlign=middle;fillColor=#f5f5f5;spacingLeft=34;spacingRight=4;overflow=hidden;rotatable=0;points=[[0,0.5],[1,0.5]];portConstraint=eastwest;dropTarget=0;fontStyle=5;fontSize=12;fontColor=#333333;strokeColor=#666666;" vertex="1" parent="598">
                    <mxGeometry y="26" width="162" height="30" as="geometry"/>
                </mxCell>
                <mxCell id="600" value="PK" style="shape=partialRectangle;top=0;left=0;bottom=0;fillColor=#f5f5f5;align=left;verticalAlign=middle;spacingLeft=4;spacingRight=4;overflow=hidden;rotatable=0;points=[];portConstraint=eastwest;part=1;fontSize=12;fontColor=#333333;strokeColor=#666666;" vertex="1" connectable="0" parent="599">
                    <mxGeometry width="30" height="30" as="geometry"/>
                </mxCell>
                <mxCell id="601" value="user_id" style="shape=partialRectangle;top=0;left=0;right=0;bottom=0;align=left;verticalAlign=top;fillColor=#f5f5f5;spacingLeft=34;spacingRight=4;overflow=hidden;rotatable=0;points=[[0,0.5],[1,0.5]];portConstraint=eastwest;dropTarget=0;fontSize=12;fontColor=#333333;strokeColor=#666666;" vertex="1" parent="598">
                    <mxGeometry y="56" width="162" height="26" as="geometry"/>
                </mxCell>
                <mxCell id="602" value="FK" style="shape=partialRectangle;top=0;left=0;bottom=0;fillColor=#f5f5f5;align=left;verticalAlign=top;spacingLeft=4;spacingRight=4;overflow=hidden;rotatable=0;points=[];portConstraint=eastwest;part=1;fontSize=12;fontColor=#333333;strokeColor=#666666;" vertex="1" connectable="0" parent="601">
                    <mxGeometry width="30" height="26" as="geometry"/>
                </mxCell>
                <mxCell id="603" value="viewable_id" style="shape=partialRectangle;top=0;left=0;right=0;bottom=0;align=left;verticalAlign=top;fillColor=#f5f5f5;spacingLeft=34;spacingRight=4;overflow=hidden;rotatable=0;points=[[0,0.5],[1,0.5]];portConstraint=eastwest;dropTarget=0;fontSize=12;fontColor=#333333;strokeColor=#666666;" vertex="1" parent="598">
                    <mxGeometry y="82" width="162" height="26" as="geometry"/>
                </mxCell>
                <mxCell id="604" value="" style="shape=partialRectangle;top=0;left=0;bottom=0;fillColor=#f5f5f5;align=left;verticalAlign=top;spacingLeft=4;spacingRight=4;overflow=hidden;rotatable=0;points=[];portConstraint=eastwest;part=1;fontSize=12;fontColor=#333333;strokeColor=#666666;" vertex="1" connectable="0" parent="603">
                    <mxGeometry width="30" height="26" as="geometry"/>
                </mxCell>
                <mxCell id="605" value="viewable_type" style="shape=partialRectangle;top=0;left=0;right=0;bottom=0;align=left;verticalAlign=top;fillColor=#f5f5f5;spacingLeft=34;spacingRight=4;overflow=hidden;rotatable=0;points=[[0,0.5],[1,0.5]];portConstraint=eastwest;dropTarget=0;fontSize=12;fontColor=#333333;strokeColor=#666666;" vertex="1" parent="598">
                    <mxGeometry y="108" width="162" height="26" as="geometry"/>
                </mxCell>
                <mxCell id="606" value="" style="shape=partialRectangle;top=0;left=0;bottom=0;fillColor=#f5f5f5;align=left;verticalAlign=top;spacingLeft=4;spacingRight=4;overflow=hidden;rotatable=0;points=[];portConstraint=eastwest;part=1;fontSize=12;fontColor=#333333;strokeColor=#666666;" vertex="1" connectable="0" parent="605">
                    <mxGeometry width="30" height="26" as="geometry"/>
                </mxCell>
                <mxCell id="607" value="viewed_at" style="shape=partialRectangle;top=0;left=0;right=0;bottom=0;align=left;verticalAlign=top;fillColor=#f5f5f5;spacingLeft=34;spacingRight=4;overflow=hidden;rotatable=0;points=[[0,0.5],[1,0.5]];portConstraint=eastwest;dropTarget=0;fontSize=12;fontColor=#333333;strokeColor=#666666;" vertex="1" parent="598">
                    <mxGeometry y="134" width="162" height="26" as="geometry"/>
                </mxCell>
                <mxCell id="608" value="" style="shape=partialRectangle;top=0;left=0;bottom=0;fillColor=#f5f5f5;align=left;verticalAlign=top;spacingLeft=4;spacingRight=4;overflow=hidden;rotatable=0;points=[];portConstraint=eastwest;part=1;fontSize=12;fontColor=#333333;strokeColor=#666666;" vertex="1" connectable="0" parent="607">
                    <mxGeometry width="30" height="26" as="geometry"/>
                </mxCell>
                <mxCell id="609" value="comments" style="swimlane;fontStyle=0;childLayout=stackLayout;horizontal=1;startSize=26;fillColor=#f5f5f5;horizontalStack=0;resizeParent=1;resizeParentMax=0;resizeLast=0;collapsible=1;marginBottom=0;swimlaneFillColor=#ffffff;align=center;fontSize=14;fontColor=#333333;strokeColor=#666666;" vertex="1" parent="zu2tDFOteG_yooguGcxT-1">
                    <mxGeometry x="1356" y="90" width="162" height="186" as="geometry"/>
                </mxCell>
                <mxCell id="610" value="id" style="shape=partialRectangle;top=0;left=0;right=0;bottom=1;align=left;verticalAlign=middle;fillColor=#f5f5f5;spacingLeft=34;spacingRight=4;overflow=hidden;rotatable=0;points=[[0,0.5],[1,0.5]];portConstraint=eastwest;dropTarget=0;fontStyle=5;fontSize=12;fontColor=#333333;strokeColor=#666666;" vertex="1" parent="609">
                    <mxGeometry y="26" width="162" height="30" as="geometry"/>
                </mxCell>
                <mxCell id="611" value="PK" style="shape=partialRectangle;top=0;left=0;bottom=0;fillColor=#f5f5f5;align=left;verticalAlign=middle;spacingLeft=4;spacingRight=4;overflow=hidden;rotatable=0;points=[];portConstraint=eastwest;part=1;fontSize=12;fontColor=#333333;strokeColor=#666666;" vertex="1" connectable="0" parent="610">
                    <mxGeometry width="30" height="30" as="geometry"/>
                </mxCell>
                <mxCell id="612" value="user_id" style="shape=partialRectangle;top=0;left=0;right=0;bottom=0;align=left;verticalAlign=top;fillColor=#f5f5f5;spacingLeft=34;spacingRight=4;overflow=hidden;rotatable=0;points=[[0,0.5],[1,0.5]];portConstraint=eastwest;dropTarget=0;fontSize=12;fontColor=#333333;strokeColor=#666666;" vertex="1" parent="609">
                    <mxGeometry y="56" width="162" height="26" as="geometry"/>
                </mxCell>
                <mxCell id="613" value="FK" style="shape=partialRectangle;top=0;left=0;bottom=0;fillColor=#f5f5f5;align=left;verticalAlign=top;spacingLeft=4;spacingRight=4;overflow=hidden;rotatable=0;points=[];portConstraint=eastwest;part=1;fontSize=12;fontColor=#333333;strokeColor=#666666;" vertex="1" connectable="0" parent="612">
                    <mxGeometry width="30" height="26" as="geometry"/>
                </mxCell>
                <mxCell id="614" value="commentable_id" style="shape=partialRectangle;top=0;left=0;right=0;bottom=0;align=left;verticalAlign=top;fillColor=#f5f5f5;spacingLeft=34;spacingRight=4;overflow=hidden;rotatable=0;points=[[0,0.5],[1,0.5]];portConstraint=eastwest;dropTarget=0;fontSize=12;fontColor=#333333;strokeColor=#666666;" vertex="1" parent="609">
                    <mxGeometry y="82" width="162" height="26" as="geometry"/>
                </mxCell>
                <mxCell id="615" value="" style="shape=partialRectangle;top=0;left=0;bottom=0;fillColor=#f5f5f5;align=left;verticalAlign=top;spacingLeft=4;spacingRight=4;overflow=hidden;rotatable=0;points=[];portConstraint=eastwest;part=1;fontSize=12;fontColor=#333333;strokeColor=#666666;" vertex="1" connectable="0" parent="614">
                    <mxGeometry width="30" height="26" as="geometry"/>
                </mxCell>
                <mxCell id="616" value="commentable_type" style="shape=partialRectangle;top=0;left=0;right=0;bottom=0;align=left;verticalAlign=top;fillColor=#f5f5f5;spacingLeft=34;spacingRight=4;overflow=hidden;rotatable=0;points=[[0,0.5],[1,0.5]];portConstraint=eastwest;dropTarget=0;fontSize=12;fontColor=#333333;strokeColor=#666666;" vertex="1" parent="609">
                    <mxGeometry y="108" width="162" height="26" as="geometry"/>
                </mxCell>
                <mxCell id="617" value="" style="shape=partialRectangle;top=0;left=0;bottom=0;fillColor=#f5f5f5;align=left;verticalAlign=top;spacingLeft=4;spacingRight=4;overflow=hidden;rotatable=0;points=[];portConstraint=eastwest;part=1;fontSize=12;fontColor=#333333;strokeColor=#666666;" vertex="1" connectable="0" parent="616">
                    <mxGeometry width="30" height="26" as="geometry"/>
                </mxCell>
                <mxCell id="618" value="created_at" style="shape=partialRectangle;top=0;left=0;right=0;bottom=0;align=left;verticalAlign=top;fillColor=#f5f5f5;spacingLeft=34;spacingRight=4;overflow=hidden;rotatable=0;points=[[0,0.5],[1,0.5]];portConstraint=eastwest;dropTarget=0;fontSize=12;fontColor=#333333;strokeColor=#666666;" vertex="1" parent="609">
                    <mxGeometry y="134" width="162" height="26" as="geometry"/>
                </mxCell>
                <mxCell id="619" value="" style="shape=partialRectangle;top=0;left=0;bottom=0;fillColor=#f5f5f5;align=left;verticalAlign=top;spacingLeft=4;spacingRight=4;overflow=hidden;rotatable=0;points=[];portConstraint=eastwest;part=1;fontSize=12;fontColor=#333333;strokeColor=#666666;" vertex="1" connectable="0" parent="618">
                    <mxGeometry width="30" height="26" as="geometry"/>
                </mxCell>
                <mxCell id="620" value="updated_at" style="shape=partialRectangle;top=0;left=0;right=0;bottom=0;align=left;verticalAlign=top;fillColor=#f5f5f5;spacingLeft=34;spacingRight=4;overflow=hidden;rotatable=0;points=[[0,0.5],[1,0.5]];portConstraint=eastwest;dropTarget=0;fontSize=12;fontColor=#333333;strokeColor=#666666;" vertex="1" parent="609">
                    <mxGeometry y="160" width="162" height="26" as="geometry"/>
                </mxCell>
                <mxCell id="621" value="" style="shape=partialRectangle;top=0;left=0;bottom=0;fillColor=#f5f5f5;align=left;verticalAlign=top;spacingLeft=4;spacingRight=4;overflow=hidden;rotatable=0;points=[];portConstraint=eastwest;part=1;fontSize=12;fontColor=#333333;strokeColor=#666666;" vertex="1" connectable="0" parent="620">
                    <mxGeometry width="30" height="26" as="geometry"/>
                </mxCell>
                <mxCell id="622" style="edgeStyle=orthogonalEdgeStyle;rounded=0;orthogonalLoop=1;jettySize=auto;html=1;entryX=0;entryY=0.5;entryDx=0;entryDy=0;" edge="1" parent="zu2tDFOteG_yooguGcxT-1" source="481" target="612">
                    <mxGeometry relative="1" as="geometry"/>
                </mxCell>
                <mxCell id="623" style="edgeStyle=orthogonalEdgeStyle;rounded=0;orthogonalLoop=1;jettySize=auto;html=1;exitX=0;exitY=0.5;exitDx=0;exitDy=0;entryX=0;entryY=0.5;entryDx=0;entryDy=0;" edge="1" parent="zu2tDFOteG_yooguGcxT-1" source="481" target="601">
                    <mxGeometry relative="1" as="geometry"/>
                </mxCell>
                <mxCell id="624" value="categories" style="swimlane;fontStyle=0;childLayout=stackLayout;horizontal=1;startSize=26;fillColor=#f5f5f5;horizontalStack=0;resizeParent=1;resizeParentMax=0;resizeLast=0;collapsible=1;marginBottom=0;swimlaneFillColor=#ffffff;align=center;fontSize=14;strokeColor=#666666;fontColor=#333333;" vertex="1" parent="zu2tDFOteG_yooguGcxT-1">
                    <mxGeometry x="1990" y="-300" width="160" height="290" as="geometry">
                        <mxRectangle x="500" y="340" width="60" height="26" as="alternateBounds"/>
                    </mxGeometry>
                </mxCell>
                <mxCell id="625" style="edgeStyle=orthogonalEdgeStyle;rounded=0;orthogonalLoop=1;jettySize=auto;html=1;exitX=0;exitY=0.5;exitDx=0;exitDy=0;entryX=0;entryY=0.5;entryDx=0;entryDy=0;" edge="1" parent="624" source="627" target="633">
                    <mxGeometry relative="1" as="geometry"/>
                </mxCell>
                <mxCell id="626" style="edgeStyle=orthogonalEdgeStyle;rounded=0;orthogonalLoop=1;jettySize=auto;html=1;entryX=0;entryY=0.5;entryDx=0;entryDy=0;" edge="1" parent="624" source="627" target="635">
                    <mxGeometry relative="1" as="geometry"/>
                </mxCell>
                <mxCell id="627" value="id" style="shape=partialRectangle;top=0;left=0;right=0;bottom=1;align=left;verticalAlign=middle;fillColor=#f5f5f5;spacingLeft=34;spacingRight=4;overflow=hidden;rotatable=0;points=[[0,0.5],[1,0.5]];portConstraint=eastwest;dropTarget=0;fontStyle=5;fontSize=12;fontColor=#333333;strokeColor=#666666;" vertex="1" parent="624">
                    <mxGeometry y="26" width="160" height="30" as="geometry"/>
                </mxCell>
                <mxCell id="628" value="PK" style="shape=partialRectangle;top=0;left=0;bottom=0;fillColor=#f5f5f5;align=left;verticalAlign=middle;spacingLeft=4;spacingRight=4;overflow=hidden;rotatable=0;points=[];portConstraint=eastwest;part=1;fontSize=12;fontColor=#333333;strokeColor=#666666;" vertex="1" connectable="0" parent="627">
                    <mxGeometry width="30" height="30" as="geometry"/>
                </mxCell>
                <mxCell id="629" value="name_en" style="shape=partialRectangle;top=0;left=0;right=0;bottom=0;align=left;verticalAlign=top;fillColor=#f5f5f5;spacingLeft=34;spacingRight=4;overflow=hidden;rotatable=0;points=[[0,0.5],[1,0.5]];portConstraint=eastwest;dropTarget=0;fontSize=12;fontColor=#333333;strokeColor=#666666;" vertex="1" parent="624">
                    <mxGeometry y="56" width="160" height="26" as="geometry"/>
                </mxCell>
                <mxCell id="630" value="" style="shape=partialRectangle;top=0;left=0;bottom=0;fillColor=#f5f5f5;align=left;verticalAlign=top;spacingLeft=4;spacingRight=4;overflow=hidden;rotatable=0;points=[];portConstraint=eastwest;part=1;fontSize=12;fontColor=#333333;strokeColor=#666666;" vertex="1" connectable="0" parent="629">
                    <mxGeometry width="30" height="26" as="geometry"/>
                </mxCell>
                <mxCell id="631" value="name_ar" style="shape=partialRectangle;top=0;left=0;right=0;bottom=0;align=left;verticalAlign=top;fillColor=#f5f5f5;spacingLeft=34;spacingRight=4;overflow=hidden;rotatable=0;points=[[0,0.5],[1,0.5]];portConstraint=eastwest;dropTarget=0;fontSize=12;fontColor=#333333;strokeColor=#666666;" vertex="1" parent="624">
                    <mxGeometry y="82" width="160" height="26" as="geometry"/>
                </mxCell>
                <mxCell id="632" value="" style="shape=partialRectangle;top=0;left=0;bottom=0;fillColor=#f5f5f5;align=left;verticalAlign=top;spacingLeft=4;spacingRight=4;overflow=hidden;rotatable=0;points=[];portConstraint=eastwest;part=1;fontSize=12;fontColor=#333333;strokeColor=#666666;" vertex="1" connectable="0" parent="631">
                    <mxGeometry width="30" height="26" as="geometry"/>
                </mxCell>
                <mxCell id="633" value="parent_id" style="shape=partialRectangle;top=0;left=0;right=0;bottom=0;align=left;verticalAlign=top;fillColor=#f5f5f5;spacingLeft=34;spacingRight=4;overflow=hidden;rotatable=0;points=[[0,0.5],[1,0.5]];portConstraint=eastwest;dropTarget=0;fontSize=12;fontColor=#333333;strokeColor=#666666;" vertex="1" parent="624">
                    <mxGeometry y="108" width="160" height="26" as="geometry"/>
                </mxCell>
                <mxCell id="634" value="" style="shape=partialRectangle;top=0;left=0;bottom=0;fillColor=#f5f5f5;align=left;verticalAlign=top;spacingLeft=4;spacingRight=4;overflow=hidden;rotatable=0;points=[];portConstraint=eastwest;part=1;fontSize=12;fontColor=#333333;strokeColor=#666666;" vertex="1" connectable="0" parent="633">
                    <mxGeometry width="30" height="26" as="geometry"/>
                </mxCell>
                <mxCell id="635" value="child_id" style="shape=partialRectangle;top=0;left=0;right=0;bottom=0;align=left;verticalAlign=top;fillColor=#f5f5f5;spacingLeft=34;spacingRight=4;overflow=hidden;rotatable=0;points=[[0,0.5],[1,0.5]];portConstraint=eastwest;dropTarget=0;fontSize=12;fontColor=#333333;strokeColor=#666666;" vertex="1" parent="624">
                    <mxGeometry y="134" width="160" height="26" as="geometry"/>
                </mxCell>
                <mxCell id="636" value="" style="shape=partialRectangle;top=0;left=0;bottom=0;fillColor=#f5f5f5;align=left;verticalAlign=top;spacingLeft=4;spacingRight=4;overflow=hidden;rotatable=0;points=[];portConstraint=eastwest;part=1;fontSize=12;fontColor=#333333;strokeColor=#666666;" vertex="1" connectable="0" parent="635">
                    <mxGeometry width="30" height="26" as="geometry"/>
                </mxCell>
                <mxCell id="637" value="data" style="shape=partialRectangle;top=0;left=0;right=0;bottom=0;align=left;verticalAlign=top;fillColor=#f5f5f5;spacingLeft=34;spacingRight=4;overflow=hidden;rotatable=0;points=[[0,0.5],[1,0.5]];portConstraint=eastwest;dropTarget=0;fontSize=12;fontColor=#333333;strokeColor=#666666;" vertex="1" parent="624">
                    <mxGeometry y="160" width="160" height="26" as="geometry"/>
                </mxCell>
                <mxCell id="638" value="array" style="shape=partialRectangle;top=0;left=0;bottom=0;fillColor=#f5f5f5;align=left;verticalAlign=top;spacingLeft=4;spacingRight=4;overflow=hidden;rotatable=0;points=[];portConstraint=eastwest;part=1;fontSize=12;fontColor=#333333;strokeColor=#666666;" vertex="1" connectable="0" parent="637">
                    <mxGeometry width="30" height="26" as="geometry"/>
                </mxCell>
                <mxCell id="639" value="order" style="shape=partialRectangle;top=0;left=0;right=0;bottom=0;align=left;verticalAlign=top;fillColor=#f5f5f5;spacingLeft=34;spacingRight=4;overflow=hidden;rotatable=0;points=[[0,0.5],[1,0.5]];portConstraint=eastwest;dropTarget=0;fontSize=12;fontColor=#333333;strokeColor=#666666;" vertex="1" parent="624">
                    <mxGeometry y="186" width="160" height="26" as="geometry"/>
                </mxCell>
                <mxCell id="640" value="" style="shape=partialRectangle;top=0;left=0;bottom=0;fillColor=#f5f5f5;align=left;verticalAlign=top;spacingLeft=4;spacingRight=4;overflow=hidden;rotatable=0;points=[];portConstraint=eastwest;part=1;fontSize=12;fontColor=#333333;strokeColor=#666666;" vertex="1" connectable="0" parent="639">
                    <mxGeometry width="30" height="26" as="geometry"/>
                </mxCell>
                <mxCell id="641" value="status" style="shape=partialRectangle;top=0;left=0;right=0;bottom=0;align=left;verticalAlign=top;fillColor=#f5f5f5;spacingLeft=34;spacingRight=4;overflow=hidden;rotatable=0;points=[[0,0.5],[1,0.5]];portConstraint=eastwest;dropTarget=0;fontSize=12;fontColor=#333333;strokeColor=#666666;" vertex="1" parent="624">
                    <mxGeometry y="212" width="160" height="26" as="geometry"/>
                </mxCell>
                <mxCell id="642" value="enum" style="shape=partialRectangle;top=0;left=0;bottom=0;fillColor=#f5f5f5;align=left;verticalAlign=top;spacingLeft=4;spacingRight=4;overflow=hidden;rotatable=0;points=[];portConstraint=eastwest;part=1;fontSize=12;fontColor=#333333;strokeColor=#666666;" vertex="1" connectable="0" parent="641">
                    <mxGeometry width="30" height="26" as="geometry"/>
                </mxCell>
                <mxCell id="643" value="created_at" style="shape=partialRectangle;top=0;left=0;right=0;bottom=0;align=left;verticalAlign=top;fillColor=#f5f5f5;spacingLeft=34;spacingRight=4;overflow=hidden;rotatable=0;points=[[0,0.5],[1,0.5]];portConstraint=eastwest;dropTarget=0;fontSize=12;fontColor=#333333;strokeColor=#666666;" vertex="1" parent="624">
                    <mxGeometry y="238" width="160" height="26" as="geometry"/>
                </mxCell>
                <mxCell id="644" value="" style="shape=partialRectangle;top=0;left=0;bottom=0;fillColor=#f5f5f5;align=left;verticalAlign=top;spacingLeft=4;spacingRight=4;overflow=hidden;rotatable=0;points=[];portConstraint=eastwest;part=1;fontSize=12;fontColor=#333333;strokeColor=#666666;" vertex="1" connectable="0" parent="643">
                    <mxGeometry width="30" height="26" as="geometry"/>
                </mxCell>
                <mxCell id="645" value="updated_at" style="shape=partialRectangle;top=0;left=0;right=0;bottom=0;align=left;verticalAlign=top;fillColor=#f5f5f5;spacingLeft=34;spacingRight=4;overflow=hidden;rotatable=0;points=[[0,0.5],[1,0.5]];portConstraint=eastwest;dropTarget=0;fontSize=12;fontColor=#333333;strokeColor=#666666;" vertex="1" parent="624">
                    <mxGeometry y="264" width="160" height="26" as="geometry"/>
                </mxCell>
                <mxCell id="646" value="" style="shape=partialRectangle;top=0;left=0;bottom=0;fillColor=#f5f5f5;align=left;verticalAlign=top;spacingLeft=4;spacingRight=4;overflow=hidden;rotatable=0;points=[];portConstraint=eastwest;part=1;fontSize=12;fontColor=#333333;strokeColor=#666666;" vertex="1" connectable="0" parent="645">
                    <mxGeometry width="30" height="26" as="geometry"/>
                </mxCell>
                <mxCell id="03yuZUI37aBGbd1FjUiY-646" style="edgeStyle=orthogonalEdgeStyle;rounded=0;orthogonalLoop=1;jettySize=auto;html=1;" edge="1" parent="zu2tDFOteG_yooguGcxT-1" source="627" target="464">
                    <mxGeometry relative="1" as="geometry"/>
                </mxCell>
            </root>
        </mxGraphModel>
    </diagram>
    <diagram id="kRBYG_WAzk0g6Lema7wD" name="Request Life Cycle">
        <mxGraphModel dx="1538" dy="771" grid="1" gridSize="10" guides="1" tooltips="1" connect="1" arrows="1" fold="1" page="1" pageScale="1" pageWidth="850" pageHeight="1100" math="0" shadow="0">
            <root>
                <mxCell id="UjtZck177hesSAFJCTC5-0"/>
                <mxCell id="UjtZck177hesSAFJCTC5-1" parent="UjtZck177hesSAFJCTC5-0"/>
                <mxCell id="UjtZck177hesSAFJCTC5-2" value="Model" style="rounded=1;whiteSpace=wrap;html=1;" parent="UjtZck177hesSAFJCTC5-1" vertex="1">
                    <mxGeometry x="340" y="790" width="120" height="60" as="geometry"/>
                </mxCell>
                <mxCell id="UjtZck177hesSAFJCTC5-9" style="edgeStyle=orthogonalEdgeStyle;rounded=0;orthogonalLoop=1;jettySize=auto;html=1;entryX=0.5;entryY=0;entryDx=0;entryDy=0;" parent="UjtZck177hesSAFJCTC5-1" source="UjtZck177hesSAFJCTC5-3" target="UjtZck177hesSAFJCTC5-7" edge="1">
                    <mxGeometry relative="1" as="geometry"/>
                </mxCell>
                <mxCell id="UjtZck177hesSAFJCTC5-3" value="Controller" style="rounded=1;whiteSpace=wrap;html=1;" parent="UjtZck177hesSAFJCTC5-1" vertex="1">
                    <mxGeometry x="340" y="430" width="120" height="60" as="geometry"/>
                </mxCell>
                <mxCell id="UjtZck177hesSAFJCTC5-8" style="edgeStyle=orthogonalEdgeStyle;rounded=0;orthogonalLoop=1;jettySize=auto;html=1;" parent="UjtZck177hesSAFJCTC5-1" source="UjtZck177hesSAFJCTC5-5" target="UjtZck177hesSAFJCTC5-3" edge="1">
                    <mxGeometry relative="1" as="geometry"/>
                </mxCell>
                <mxCell id="UjtZck177hesSAFJCTC5-5" value="View" style="shape=ext;double=1;whiteSpace=wrap;html=1;aspect=fixed;" parent="UjtZck177hesSAFJCTC5-1" vertex="1">
                    <mxGeometry x="340" y="270" width="120" height="120" as="geometry"/>
                </mxCell>
                <mxCell id="UjtZck177hesSAFJCTC5-11" style="edgeStyle=orthogonalEdgeStyle;rounded=0;orthogonalLoop=1;jettySize=auto;html=1;entryX=0.5;entryY=0;entryDx=0;entryDy=0;" parent="UjtZck177hesSAFJCTC5-1" source="UjtZck177hesSAFJCTC5-6" target="UjtZck177hesSAFJCTC5-2" edge="1">
                    <mxGeometry relative="1" as="geometry"/>
                </mxCell>
                <mxCell id="UjtZck177hesSAFJCTC5-6" value="Eloquent" style="ellipse;whiteSpace=wrap;html=1;" parent="UjtZck177hesSAFJCTC5-1" vertex="1">
                    <mxGeometry x="360" y="660" width="80" height="60" as="geometry"/>
                </mxCell>
                <mxCell id="UjtZck177hesSAFJCTC5-10" style="edgeStyle=orthogonalEdgeStyle;rounded=0;orthogonalLoop=1;jettySize=auto;html=1;entryX=0.5;entryY=0;entryDx=0;entryDy=0;" parent="UjtZck177hesSAFJCTC5-1" source="UjtZck177hesSAFJCTC5-7" target="UjtZck177hesSAFJCTC5-6" edge="1">
                    <mxGeometry relative="1" as="geometry"/>
                </mxCell>
                <mxCell id="UjtZck177hesSAFJCTC5-7" value="Repo" style="ellipse;whiteSpace=wrap;html=1;" parent="UjtZck177hesSAFJCTC5-1" vertex="1">
                    <mxGeometry x="360" y="550" width="80" height="60" as="geometry"/>
                </mxCell>
                <mxCell id="UjtZck177hesSAFJCTC5-18" style="edgeStyle=orthogonalEdgeStyle;rounded=0;orthogonalLoop=1;jettySize=auto;html=1;" parent="UjtZck177hesSAFJCTC5-1" source="UjtZck177hesSAFJCTC5-15" target="UjtZck177hesSAFJCTC5-17" edge="1">
                    <mxGeometry relative="1" as="geometry"/>
                </mxCell>
                <mxCell id="UjtZck177hesSAFJCTC5-15" value="www.example.com" style="text;html=1;strokeColor=none;fillColor=none;align=center;verticalAlign=middle;whiteSpace=wrap;rounded=0;" parent="UjtZck177hesSAFJCTC5-1" vertex="1">
                    <mxGeometry x="335" y="10" width="130" height="20" as="geometry"/>
                </mxCell>
                <mxCell id="UjtZck177hesSAFJCTC5-20" style="edgeStyle=orthogonalEdgeStyle;rounded=0;orthogonalLoop=1;jettySize=auto;html=1;entryX=0.5;entryY=0;entryDx=0;entryDy=0;" parent="UjtZck177hesSAFJCTC5-1" source="UjtZck177hesSAFJCTC5-16" target="UjtZck177hesSAFJCTC5-5" edge="1">
                    <mxGeometry relative="1" as="geometry"/>
                </mxCell>
                <mxCell id="UjtZck177hesSAFJCTC5-16" value="index.php" style="rhombus;whiteSpace=wrap;html=1;" parent="UjtZck177hesSAFJCTC5-1" vertex="1">
                    <mxGeometry x="360" y="160" width="80" height="80" as="geometry"/>
                </mxCell>
                <mxCell id="UjtZck177hesSAFJCTC5-19" style="edgeStyle=orthogonalEdgeStyle;rounded=0;orthogonalLoop=1;jettySize=auto;html=1;entryX=0.5;entryY=0;entryDx=0;entryDy=0;" parent="UjtZck177hesSAFJCTC5-1" source="UjtZck177hesSAFJCTC5-17" target="UjtZck177hesSAFJCTC5-16" edge="1">
                    <mxGeometry relative="1" as="geometry"/>
                </mxCell>
                <mxCell id="UjtZck177hesSAFJCTC5-17" value=".htaccess" style="shape=trapezoid;perimeter=trapezoidPerimeter;whiteSpace=wrap;html=1;fixedSize=1;" parent="UjtZck177hesSAFJCTC5-1" vertex="1">
                    <mxGeometry x="340" y="60" width="120" height="60" as="geometry"/>
                </mxCell>
            </root>
        </mxGraphModel>
    </diagram>
</mxfile>
